<svg width="86" height="86" viewBox="0 0 86 86" fill="none" xmlns="http://www.w3.org/2000/svg">
<path fill-rule="evenodd" clip-rule="evenodd" d="M40.3586 24.6963C38.7637 23.9143 36.1171 23.1367 31.9979 23.2921C27.8547 23.4483 25.1818 24.228 23.5646 24.9454C22.7556 25.3043 22.2078 25.6489 21.87 25.8951C21.7545 25.9792 21.6634 26.052 21.5946 26.1102V61.7738H20.2973V62.7279H65.7027V61.7738H64.4054V37.7685L42.3514 31.726V26.0714C42.2792 25.9958 42.1749 25.8937 42.0348 25.773C41.6995 25.4843 41.1578 25.0881 40.3586 24.6963ZM42.4783 26.2147L42.4775 26.2137C42.4784 26.2148 42.4787 26.2152 42.4783 26.2147ZM43 25.8368L43.5246 25.4626L43.6486 25.6299V30.7606L65.7027 36.8031V60.5017H67V64H19V60.5017H20.2973V25.5949L20.4611 25.4142L20.9459 25.8368C20.4611 25.4142 20.4615 25.4138 20.4618 25.4134L20.4626 25.4126L20.4643 25.4108L20.4684 25.4063L20.4796 25.3944C20.4884 25.3852 20.4999 25.3733 20.5142 25.359C20.5429 25.3304 20.5828 25.2919 20.6347 25.2451C20.7385 25.1515 20.8902 25.0242 21.0962 24.8741C21.5084 24.5736 22.1363 24.1828 23.0299 23.7864C24.8182 22.9931 27.6588 22.1827 31.948 22.0209C36.2613 21.8582 39.1282 22.6708 40.9387 23.5585C41.8422 24.0014 42.4761 24.46 42.8909 24.8172C43.0981 24.9957 43.2502 25.1486 43.3537 25.2611C43.4054 25.3173 43.445 25.3634 43.4732 25.3976C43.4873 25.4147 43.4986 25.4289 43.5071 25.4398L43.5179 25.4537L43.5217 25.4588L43.5233 25.4609L43.524 25.4618C43.5243 25.4622 43.5246 25.4626 43 25.8368Z" fill="#00548E"/>
<path fill-rule="evenodd" clip-rule="evenodd" d="M42 41.6111C42 41.2736 42.2884 41 42.6441 41H60.3559C60.7116 41 61 41.2736 61 41.6111C61 41.9486 60.7116 42.2222 60.3559 42.2222H42.6441C42.2884 42.2222 42 41.9486 42 41.6111ZM42 46.5C42 46.1625 42.2884 45.8889 42.6441 45.8889H60.3559C60.7116 45.8889 61 46.1625 61 46.5C61 46.8375 60.7116 47.1111 60.3559 47.1111H42.6441C42.2884 47.1111 42 46.8375 42 46.5ZM42 51.3889C42 51.0514 42.2884 50.7778 42.6441 50.7778H60.3559C60.7116 50.7778 61 51.0514 61 51.3889C61 51.7264 60.7116 52 60.3559 52H42.6441C42.2884 52 42 51.7264 42 51.3889Z" fill="#00A886"/>
<path d="M28 29.0158C28 28.7256 28.0848 28.4837 28.2545 28.2902C28.4303 28.0967 28.6909 28 29.0364 28C29.3818 28 29.6424 28.0967 29.8182 28.2902C30 28.4837 30.0909 28.7256 30.0909 29.0158C30.0909 29.2939 30 29.5267 29.8182 29.7142C29.6424 29.9016 29.3818 29.9953 29.0364 29.9953C28.6909 29.9953 28.4303 29.9016 28.2545 29.7142C28.0848 29.5267 28 29.2939 28 29.0158Z" fill="#00A886"/>
<path d="M32.9091 29.0158C32.9091 28.7256 32.9939 28.4837 33.1636 28.2902C33.3394 28.0967 33.6 28 33.9455 28C34.2909 28 34.5515 28.0967 34.7273 28.2902C34.9091 28.4837 35 28.7256 35 29.0158C35 29.2939 34.9091 29.5267 34.7273 29.7142C34.5515 29.9016 34.2909 29.9953 33.9455 29.9953C33.6 29.9953 33.3394 29.9016 33.1636 29.7142C32.9939 29.5267 32.9091 29.2939 32.9091 29.0158Z" fill="#00A886"/>
<path d="M28 33.3499C28 33.0597 28.0848 32.8178 28.2545 32.6243C28.4303 32.4309 28.6909 32.3341 29.0364 32.3341C29.3818 32.3341 29.6424 32.4309 29.8182 32.6243C30 32.8178 30.0909 33.0597 30.0909 33.3499C30.0909 33.6281 30 33.8608 29.8182 34.0483C29.6424 34.2357 29.3818 34.3294 29.0364 34.3294C28.6909 34.3294 28.4303 34.2357 28.2545 34.0483C28.0848 33.8608 28 33.6281 28 33.3499Z" fill="#00A886"/>
<path d="M32.9091 33.3499C32.9091 33.0597 32.9939 32.8178 33.1636 32.6243C33.3394 32.4309 33.6 32.3341 33.9455 32.3341C34.2909 32.3341 34.5515 32.4309 34.7273 32.6243C34.9091 32.8178 35 33.0597 35 33.3499C35 33.6281 34.9091 33.8608 34.7273 34.0483C34.5515 34.2357 34.2909 34.3294 33.9455 34.3294C33.6 34.3294 33.3394 34.2357 33.1636 34.0483C32.9939 33.8608 32.9091 33.6281 32.9091 33.3499Z" fill="#00A886"/>
<path d="M28 37.684C28 37.3938 28.0848 37.1519 28.2545 36.9585C28.4303 36.765 28.6909 36.6682 29.0364 36.6682C29.3818 36.6682 29.6424 36.765 29.8182 36.9585C30 37.1519 30.0909 37.3938 30.0909 37.684C30.0909 37.9622 30 38.195 29.8182 38.3824C29.6424 38.5698 29.3818 38.6636 29.0364 38.6636C28.6909 38.6636 28.4303 38.5698 28.2545 38.3824C28.0848 38.195 28 37.9622 28 37.684Z" fill="#00A886"/>
<path d="M32.9091 37.684C32.9091 37.3938 32.9939 37.1519 33.1636 36.9585C33.3394 36.765 33.6 36.6682 33.9455 36.6682C34.2909 36.6682 34.5515 36.765 34.7273 36.9585C34.9091 37.1519 35 37.3938 35 37.684C35 37.9622 34.9091 38.195 34.7273 38.3824C34.5515 38.5698 34.2909 38.6636 33.9455 38.6636C33.6 38.6636 33.3394 38.5698 33.1636 38.3824C32.9939 38.195 32.9091 37.9622 32.9091 37.684Z" fill="#00A886"/>
<path d="M28 42.0181C28 41.7279 28.0848 41.486 28.2545 41.2926C28.4303 41.0991 28.6909 41.0023 29.0364 41.0023C29.3818 41.0023 29.6424 41.0991 29.8182 41.2926C30 41.486 30.0909 41.7279 30.0909 42.0181C30.0909 42.2963 30 42.5291 29.8182 42.7165C29.6424 42.9039 29.3818 42.9977 29.0364 42.9977C28.6909 42.9977 28.4303 42.9039 28.2545 42.7165C28.0848 42.5291 28 42.2963 28 42.0181Z" fill="#00A886"/>
<path d="M32.9091 42.0181C32.9091 41.7279 32.9939 41.486 33.1636 41.2926C33.3394 41.0991 33.6 41.0023 33.9455 41.0023C34.2909 41.0023 34.5515 41.0991 34.7273 41.2926C34.9091 41.486 35 41.7279 35 42.0181C35 42.2963 34.9091 42.5291 34.7273 42.7165C34.5515 42.9039 34.2909 42.9977 33.9455 42.9977C33.6 42.9977 33.3394 42.9039 33.1636 42.7165C32.9939 42.5291 32.9091 42.2963 32.9091 42.0181Z" fill="#00A886"/>
<path d="M28 46.3523C28 46.062 28.0848 45.8202 28.2545 45.6267C28.4303 45.4332 28.6909 45.3364 29.0364 45.3364C29.3818 45.3364 29.6424 45.4332 29.8182 45.6267C30 45.8202 30.0909 46.062 30.0909 46.3523C30.0909 46.6304 30 46.8632 29.8182 47.0506C29.6424 47.2381 29.3818 47.3318 29.0364 47.3318C28.6909 47.3318 28.4303 47.2381 28.2545 47.0506C28.0848 46.8632 28 46.6304 28 46.3523Z" fill="#00A886"/>
<path d="M32.9091 46.3523C32.9091 46.062 32.9939 45.8202 33.1636 45.6267C33.3394 45.4332 33.6 45.3364 33.9455 45.3364C34.2909 45.3364 34.5515 45.4332 34.7273 45.6267C34.9091 45.8202 35 46.062 35 46.3523C35 46.6304 34.9091 46.8632 34.7273 47.0506C34.5515 47.2381 34.2909 47.3318 33.9455 47.3318C33.6 47.3318 33.3394 47.2381 33.1636 47.0506C32.9939 46.8632 32.9091 46.6304 32.9091 46.3523Z" fill="#00A886"/>
<path d="M28 50.6864C28 50.3961 28.0848 50.1543 28.2545 49.9608C28.4303 49.7673 28.6909 49.6706 29.0364 49.6706C29.3818 49.6706 29.6424 49.7673 29.8182 49.9608C30 50.1543 30.0909 50.3961 30.0909 50.6864C30.0909 50.9645 30 51.1973 29.8182 51.3847C29.6424 51.5722 29.3818 51.6659 29.0364 51.6659C28.6909 51.6659 28.4303 51.5722 28.2545 51.3847C28.0848 51.1973 28 50.9645 28 50.6864Z" fill="#00A886"/>
<path d="M32.9091 50.6864C32.9091 50.3961 32.9939 50.1543 33.1636 49.9608C33.3394 49.7673 33.6 49.6706 33.9455 49.6706C34.2909 49.6706 34.5515 49.7673 34.7273 49.9608C34.9091 50.1543 35 50.3961 35 50.6864C35 50.9645 34.9091 51.1973 34.7273 51.3847C34.5515 51.5722 34.2909 51.6659 33.9455 51.6659C33.6 51.6659 33.3394 51.5722 33.1636 51.3847C32.9939 51.1973 32.9091 50.9645 32.9091 50.6864Z" fill="#00A886"/>
<path d="M28 55.0205C28 54.7302 28.0848 54.4884 28.2545 54.2949C28.4303 54.1014 28.6909 54.0047 29.0364 54.0047C29.3818 54.0047 29.6424 54.1014 29.8182 54.2949C30 54.4884 30.0909 54.7302 30.0909 55.0205C30.0909 55.2986 30 55.5314 29.8182 55.7188C29.6424 55.9063 29.3818 56 29.0364 56C28.6909 56 28.4303 55.9063 28.2545 55.7188C28.0848 55.5314 28 55.2986 28 55.0205Z" fill="#00A886"/>
<path d="M32.9091 55.0205C32.9091 54.7302 32.9939 54.4884 33.1636 54.2949C33.3394 54.1014 33.6 54.0047 33.9455 54.0047C34.2909 54.0047 34.5515 54.1014 34.7273 54.2949C34.9091 54.4884 35 54.7302 35 55.0205C35 55.2986 34.9091 55.5314 34.7273 55.7188C34.5515 55.9063 34.2909 56 33.9455 56C33.6 56 33.3394 55.9063 33.1636 55.7188C32.9939 55.5314 32.9091 55.2986 32.9091 55.0205Z" fill="#00A886"/>
<rect x="47" y="56" width="8" height="4" fill="#00548E"/>
<circle cx="43" cy="43" r="42.5" stroke="#00548E"/>
</svg>
