<svg width="86" height="86" viewBox="0 0 86 86" fill="none" xmlns="http://www.w3.org/2000/svg">
<circle cx="43" cy="43" r="42.5" stroke="#00548E"/>
<path d="M32.0081 33.5C32.0081 36.542 29.542 39.0081 26.5 39.0081C23.458 39.0081 20.9919 36.542 20.9919 33.5C20.9919 30.458 23.458 27.9919 26.5 27.9919C29.542 27.9919 32.0081 30.458 32.0081 33.5ZM26.5 39.5081C29.8182 39.5081 32.5081 36.8182 32.5081 33.5C32.5081 30.1818 29.8182 27.4919 26.5 27.4919C23.1818 27.4919 20.4919 30.1818 20.4919 33.5C20.4919 36.8182 23.1818 39.5081 26.5 39.5081ZM66.0081 33.5C66.0081 36.542 63.542 39.0081 60.5 39.0081C57.458 39.0081 54.9919 36.542 54.9919 33.5C54.9919 30.458 57.458 27.9919 60.5 27.9919C63.542 27.9919 66.0081 30.458 66.0081 33.5ZM60.5 39.5081C63.8182 39.5081 66.5081 36.8182 66.5081 33.5C66.5081 30.1818 63.8182 27.4919 60.5 27.4919C57.1818 27.4919 54.4919 30.1818 54.4919 33.5C54.4919 36.8182 57.1818 39.5081 60.5 39.5081ZM51.75 51.0484C51.75 55.6047 48.0563 59.2984 43.5 59.2984C38.9437 59.2984 35.25 55.6047 35.25 51.0484C35.25 46.492 38.9437 42.7984 43.5 42.7984C48.0563 42.7984 51.75 46.492 51.75 51.0484ZM43.5 59.7984C48.3325 59.7984 52.25 55.8809 52.25 51.0484C52.25 46.2159 48.3325 42.2984 43.5 42.2984C38.6675 42.2984 34.75 46.2159 34.75 51.0484C34.75 55.8809 38.6675 59.7984 43.5 59.7984ZM56.6855 51.0484C56.6855 58.3305 50.7821 64.2339 43.5 64.2339C36.2179 64.2339 30.3145 58.3305 30.3145 51.0484C30.3145 43.7662 36.2179 37.8629 43.5 37.8629C50.7821 37.8629 56.6855 43.7662 56.6855 51.0484ZM68.75 33.5C68.75 38.0563 65.0563 41.75 60.5 41.75C55.9437 41.75 52.25 38.0563 52.25 33.5C52.25 28.9437 55.9437 25.25 60.5 25.25C65.0563 25.25 68.75 28.9437 68.75 33.5ZM34.75 33.5C34.75 38.0563 31.0563 41.75 26.5 41.75C21.9437 41.75 18.25 38.0563 18.25 33.5C18.25 28.9437 21.9437 25.25 26.5 25.25C31.0563 25.25 34.75 28.9437 34.75 33.5Z" stroke="#00A886" stroke-width="0.5"/>
<path d="M28.8446 35.9675H27.7231V34.0139H26.0619V35.9675H24.9341V31.2891H26.0619V33.1463H27.7231V31.2891H28.8446V35.9675Z" fill="#00548E"/>
<path d="M62.8446 35.9675H61.7231V34.0139H60.0619V35.9675H58.9341V31.2891H60.0619V33.1463H61.7231V31.2891H62.8446V35.9675Z" fill="#00548E"/>
<path d="M46.2623 51.9371C46.2623 53.0153 46.0391 53.8401 45.5929 54.4113C45.1466 54.9825 44.4932 55.2681 43.6328 55.2681C42.7831 55.2681 42.1333 54.9879 41.6835 54.4274C41.2336 53.8668 41.0033 53.0635 40.9926 52.0175V50.5822C40.9926 49.4933 41.2175 48.6668 41.6674 48.1027C42.1208 47.5386 42.7724 47.2566 43.6221 47.2566C44.4718 47.2566 45.1216 47.5368 45.5714 48.0973C46.0213 48.6543 46.2516 49.4558 46.2623 50.5019V51.9371ZM44.7146 50.3627C44.7146 49.7164 44.6253 49.247 44.4468 48.9542C44.2719 48.6579 43.997 48.5097 43.6221 48.5097C43.2579 48.5097 42.9884 48.6507 42.8134 48.9328C42.6421 49.2113 42.551 49.6486 42.5403 50.2448V52.1406C42.5403 52.7761 42.626 53.2492 42.7974 53.5598C42.9723 53.8668 43.2508 54.0204 43.6328 54.0204C44.0112 54.0204 44.2844 53.8722 44.4522 53.5759C44.62 53.2795 44.7074 52.8261 44.7146 52.2156V50.3627Z" fill="#00548E"/>
<path d="M32.2582 39.2578L34.1775 41.7255M31.1614 40.3546L33.0807 42.8223M54.4678 39.2578L52.5484 41.7255M55.5645 40.3546L53.6452 42.8223" stroke="#00A886"/>
</svg>
