<svg width="86" height="86" viewBox="0 0 86 86" fill="none" xmlns="http://www.w3.org/2000/svg">
<path fill-rule="evenodd" clip-rule="evenodd" d="M52.9218 36.2617C52.9479 36.5867 52.9609 36.9201 52.9609 37.2617H46.3594C46.3594 35.9076 46.099 34.8659 45.5781 34.1367C45.0573 33.4076 44.3151 33.043 43.3516 33.043C42.4922 33.043 41.8216 33.3164 41.3398 33.8633C40.8711 34.3971 40.6367 35.1393 40.6367 36.0898C40.6367 37.0534 40.9102 37.8216 41.457 38.3945C42.0039 38.9544 42.8828 39.4948 44.0938 40.0156C45.3047 40.5234 46.444 41.0573 47.5117 41.6172C48.5924 42.1641 49.5234 42.7891 50.3047 43.4922C51.0859 44.1953 51.6979 45.0156 52.1406 45.9531C52.5833 46.8906 52.8047 48.0169 52.8047 49.332C52.8047 51.5586 52.0951 53.375 50.6758 54.7812C49.2695 56.1875 47.349 57.0078 44.9141 57.2422V61.168H41.8086V57.2227C38.9701 56.9232 36.7891 55.9531 35.2656 54.3125C33.9467 52.8685 33.2036 51.0274 33.0364 48.7891C33.0121 48.4641 33 48.1308 33 47.7891H39.582C39.582 49.2734 39.9076 50.4062 40.5586 51.1875C41.2227 51.9557 42.1602 52.3398 43.3711 52.3398C44.2565 52.3398 44.9531 52.0794 45.4609 51.5586C45.9688 51.0247 46.2227 50.2956 46.2227 49.3711C46.2227 48.3424 45.9688 47.5352 45.4609 46.9492C44.9531 46.3633 44.0612 45.8099 42.7852 45.2891C41.5091 44.7682 40.3307 44.2409 39.25 43.707C38.1693 43.1732 37.2383 42.5547 36.457 41.8516C35.6758 41.1484 35.0768 40.3346 34.6602 39.4102C34.2435 38.4857 34.0352 37.3659 34.0352 36.0508C34.0352 33.8503 34.7773 32.0404 36.2617 30.6211C37.7461 29.1888 39.7253 28.3555 42.1992 28.1211V24H45.3047V28.1992C47.6875 28.5508 49.556 29.5339 50.9102 31.1484C52.0885 32.5288 52.7591 34.2333 52.9218 36.2617ZM51.6735 30.5025C53.2196 32.3153 53.9609 34.5952 53.9609 37.2617V38.2617H45.3594V37.2617C45.3594 36.0156 45.1165 35.2109 44.7644 34.718C44.4472 34.274 44.0207 34.043 43.3516 34.043C42.7233 34.043 42.3483 34.2317 42.0908 34.5236C41.8299 34.8211 41.6367 35.2996 41.6367 36.0898C41.6367 36.8522 41.8464 37.352 42.1766 37.7C42.5906 38.1221 43.3292 38.5978 44.4848 39.0952C45.7158 39.6116 46.8777 40.1558 47.9698 40.7282C49.1148 41.3083 50.1194 41.98 50.9737 42.7489C51.8521 43.5395 52.5447 44.4669 53.0449 45.5261C53.5652 46.628 53.8047 47.9077 53.8047 49.332C53.8047 51.791 53.0116 53.8736 51.3815 55.4897C49.9654 56.9052 48.1209 57.7661 45.9141 58.1219V62.168H40.8086V58.0984C38.2085 57.68 36.0872 56.6668 34.5328 54.993L34.5272 54.9869C32.8156 53.1129 32 50.6804 32 47.7891V46.7891H40.582V47.7891C40.582 49.1383 40.8785 50.005 41.3211 50.5404C41.7582 51.0422 42.3936 51.3398 43.3711 51.3398C44.0461 51.3398 44.4607 51.1496 44.7406 50.8649C45.0272 50.5612 45.2227 50.1038 45.2227 49.3711C45.2227 48.5034 45.0102 47.956 44.7052 47.6041C44.3519 47.1964 43.6344 46.7158 42.4073 46.2149C41.1123 45.6863 39.9119 45.1493 38.8071 44.6036C37.6561 44.0351 36.6464 43.3674 35.7881 42.5949C34.9076 41.8024 34.2242 40.8766 33.7485 39.8211C33.259 38.7351 33.0352 37.4672 33.0352 36.0508C33.0352 33.5998 33.8732 31.5221 35.569 29.8999C37.0526 28.469 38.9486 27.5964 41.1992 27.2396V23H46.3047V27.3654C48.5028 27.8447 50.3123 28.881 51.6735 30.5025Z" fill="#00A886"/>
<circle cx="43" cy="43" r="42.5" stroke="#00548E"/>
</svg>
