<svg width="20" height="20" viewBox="0 0 20 20" fill="none" xmlns="http://www.w3.org/2000/svg">
<path fill-rule="evenodd" clip-rule="evenodd" d="M8.8614 6.19618C9.3795 5.51369 9.56529 4.7944 8.97932 4.15949C7.66437 2.36094 6.78003 1.24871 6.22533 0.713092C5.17077 -0.305191 3.436 -0.167452 2.52267 0.712222C2.03212 1.1847 1.86604 1.34695 1.36235 1.84705C-1.4433 4.59101 0.267729 10.3917 4.81627 14.8422C9.36378 19.2917 15.2975 20.9651 18.109 18.2153C18.5738 17.7773 18.9673 17.3925 19.2777 17.0718C20.1727 16.1471 20.3086 14.5262 19.2718 13.4731C18.7402 12.9332 17.6552 12.1105 15.7378 10.7699C15.1506 10.2566 14.4543 10.3678 13.8159 10.7772C13.5089 10.9741 13.2854 11.1733 12.8634 11.5862L12.0972 12.3356C11.9963 12.4343 10.6259 11.7635 9.2956 10.4619C7.9646 9.15956 7.27878 7.81994 7.37923 7.72176L8.146 6.97184C8.27988 6.84085 8.34388 6.77743 8.42596 6.69311C8.59697 6.51742 8.73856 6.35799 8.8614 6.19618ZM13.5106 13.718L14.277 12.9684C14.5092 12.7412 14.6597 12.6015 14.7822 12.5052C16.4618 13.6842 17.4346 14.4256 17.8319 14.8292C18.0705 15.0715 18.0334 15.5136 17.8261 15.7278C17.5391 16.0243 17.1662 16.389 16.7086 16.8204C14.8906 18.5983 10.1008 17.2475 6.23001 13.4601C2.35803 9.67156 0.976766 4.98888 2.78108 3.22421C3.28274 2.72617 3.44168 2.57089 3.92524 2.10515C4.10654 1.93052 4.6004 1.89131 4.82096 2.10428C5.24802 2.51666 6.04022 3.50817 7.20559 5.09497C7.14526 5.16818 7.06991 5.25092 6.97821 5.34512C6.91091 5.41426 6.85484 5.46982 6.73226 5.58976L5.96624 6.33895C4.66309 7.61266 5.7729 9.78045 7.88186 11.844C9.98936 13.906 12.2079 14.9921 13.5106 13.718Z" fill="white"/>
</svg>
