<svg width="265" height="67" viewBox="0 0 265 67" fill="none" xmlns="http://www.w3.org/2000/svg">
<g clip-path="url(#clip0_448_4408)">
<path d="M22.6347 5.42773C20.3085 11.8157 14.0313 19.0529 12.0743 22.7823C11.262 24.37 10.782 26.1424 10.782 28.0255C10.782 34.3765 16.0991 39.546 22.6347 39.546H22.8194C29.355 39.546 34.6721 34.3765 34.6721 28.0255C34.6721 26.1424 34.1921 24.37 33.3798 22.7823C31.4228 19.0529 25.1456 11.8157 22.8194 5.42773H22.6347Z" fill="white"/>
<path d="M39.3616 7.27434C35.0414 2.9911 29.3181 0.62793 23.2256 0.62793C10.6343 0.62793 0.40625 10.856 0.40625 23.4103C0.40625 29.5029 2.76942 35.2262 7.08958 39.5463C11.4097 43.8665 17.133 46.2297 23.2256 46.2297C29.3181 46.2297 35.0414 43.8665 39.3616 39.5463C43.6818 35.2262 46.0449 29.5029 46.0449 23.4103C46.0449 17.3178 43.6448 11.5945 39.3616 7.27434ZM9.3789 37.257C5.68645 33.5646 3.6556 28.6536 3.6556 23.4103C3.6556 18.6471 5.35413 14.1054 8.49271 10.5606L36.0753 38.1432C32.6413 41.1341 28.1365 42.9803 23.2256 42.9803C17.9823 42.9803 13.0714 40.9495 9.3789 37.257ZM38.3277 35.817L10.782 8.30822C14.2899 5.42811 18.61 3.87729 23.1887 3.87729C28.4319 3.87729 33.3429 5.90813 37.0353 9.60058C40.7278 13.293 42.7586 18.204 42.7586 23.4473C42.7956 28.1367 41.134 32.4568 38.3277 35.817Z" fill="white"/>
<path d="M140.055 48.3711H145.483C146.59 48.3711 147.624 48.7403 147.624 50.4019C147.624 51.3251 147.366 52.2112 146.849 53.5405C146.295 55.0175 145.003 55.5345 144.006 55.5345H138.098L140.055 48.3711ZM141.716 53.6513H142.861C143.562 53.6513 144.006 53.0974 144.153 52.4697C144.301 51.8789 144.338 51.5835 144.338 51.4358C144.338 50.9558 144.116 50.7712 143.526 50.7712H142.529L141.716 53.6513Z" fill="white"/>
<path d="M151.427 53.1339C151.39 53.2816 151.39 53.3555 151.39 53.4662C151.39 54.1309 152.203 54.1309 152.83 54.1309C153.79 54.1309 154.714 53.9093 155.6 53.7247L154.824 55.3125C153.754 55.6079 152.609 55.7556 151.464 55.7556C150.098 55.7556 148.363 55.6448 148.363 53.8355C148.363 52.5062 148.953 51.0292 149.507 50.3646C150.393 49.2938 151.501 49.2568 152.794 49.2568C155.489 49.2568 156.523 49.7369 156.523 51.3615C156.523 51.7308 156.191 52.7277 156.006 53.1339H151.427ZM153.938 51.8416C153.975 51.6569 154.012 51.5092 154.012 51.3615C154.012 50.9184 153.495 50.8077 153.237 50.8077C152.535 50.8077 152.129 50.9923 151.833 51.8416H153.938Z" fill="white"/>
<path d="M173.803 53.6879C173.434 55.0172 172.29 55.7557 169.779 55.7557C168.745 55.7557 166.492 55.7188 166.492 54.2418C166.492 53.6879 166.714 52.9494 166.862 52.4325L167.674 49.4785H170.665L169.779 52.6909C169.705 52.9494 169.631 53.2817 169.631 53.3925C169.631 53.7248 169.926 53.8725 170.222 53.8725C170.665 53.8725 170.886 53.651 170.997 53.2448L172.031 49.4785H174.985L173.803 53.6879Z" fill="white"/>
<path d="M176.61 49.4786H179.527L179.084 50.9186C179.638 49.8478 180.376 49.2939 181.632 49.2939C182.85 49.2939 183.404 49.6263 183.404 50.9186H183.441C183.847 49.8847 184.733 49.2939 185.915 49.2939C186.912 49.2939 187.724 49.737 187.724 50.6232C187.724 50.9925 187.613 51.4356 187.54 51.7679L186.543 55.5711H183.626L184.253 53.3926C184.327 53.0603 184.475 52.6541 184.475 52.4695C184.475 52.1371 184.106 52.0264 183.847 52.0264C183.146 52.0264 182.998 52.3587 182.776 53.3187L182.186 55.6081H179.342L179.97 53.4295C180.044 53.0972 180.192 52.691 180.192 52.5064C180.192 52.1741 179.822 52.0633 179.564 52.0633C178.862 52.0633 178.715 52.3956 178.493 53.3557L177.902 55.645H175.059L176.61 49.4786Z" fill="white"/>
<path d="M189.792 49.3677C190.161 49.4046 190.715 49.4416 191.306 49.4416H191.343C191.97 49.4416 192.414 49.4046 192.746 49.3677L191.084 55.5341H188.167L189.792 49.3677ZM192.635 47.5584C193.004 47.5584 193.152 47.6323 193.152 47.78C193.152 47.8538 193.041 48.3338 192.931 48.6292C192.857 48.9246 192.377 48.9246 191.49 48.9246H191.047C190.309 48.9246 189.94 48.9246 189.94 48.6661C189.94 48.5184 189.977 48.26 190.05 48.0015C190.198 47.5953 190.235 47.5215 191.269 47.5215H192.635V47.5584Z" fill="white"/>
<path d="M200.352 55.5718H197.398L197.768 54.3533H197.731C197.214 55.3503 196.291 55.7934 195.183 55.7934C194.075 55.7934 193.152 55.3503 193.152 54.0949C193.152 53.0979 193.484 52.1379 193.78 51.2886C194.26 49.9224 195.294 49.2947 196.697 49.2947C197.952 49.2947 198.691 49.6639 198.728 50.8455H198.765L199.503 48.0762H202.457L200.352 55.5718ZM196.254 52.7656C196.217 52.9133 196.18 53.0979 196.18 53.2456C196.18 53.7256 196.512 53.8733 196.955 53.8733C197.694 53.8733 198.026 53.4302 198.211 52.8025C198.248 52.6179 198.285 52.4702 198.285 52.2486C198.285 51.8055 197.915 51.6948 197.546 51.6948C196.734 51.6209 196.475 52.0271 196.254 52.7656Z" fill="white"/>
<path d="M203.638 49.3677C203.971 49.4046 204.562 49.4416 205.115 49.4416H205.152C205.78 49.4416 206.223 49.4046 206.555 49.3677L204.894 55.5341H201.94L203.638 49.3677ZM206.482 47.5584C206.851 47.5584 206.999 47.6323 206.999 47.78C206.999 47.8538 206.888 48.3338 206.777 48.6292C206.703 48.9246 206.223 48.9246 205.337 48.9246H204.857C204.118 48.9246 203.749 48.9246 203.749 48.6661C203.749 48.5184 203.786 48.26 203.86 48.0015C204.008 47.5953 204.045 47.5215 205.079 47.5215H206.482V47.5584Z" fill="white"/>
<path d="M207.627 52.9864H206.814L207.368 50.9925H208.18L208.55 49.4416C208.882 48.1862 209.879 47.9277 211.43 47.9277C212.205 47.9277 212.981 48.0016 213.756 48.0754L213.276 49.8847C212.944 49.8478 212.611 49.8109 212.279 49.8109C211.836 49.8109 211.504 49.8847 211.319 50.3278L211.171 50.9186H213.018L212.427 52.9125H210.617L209.916 55.4973H206.962L207.627 52.9864Z" fill="white"/>
<path d="M214.642 49.3677C215.011 49.4046 215.565 49.4416 216.156 49.4416H216.193C216.821 49.4416 217.264 49.4046 217.596 49.3677L215.934 55.5341H213.017L214.642 49.3677ZM217.485 47.5584C217.854 47.5584 218.002 47.6323 218.002 47.78C218.002 47.8538 217.891 48.3338 217.781 48.6292C217.707 48.9246 217.227 48.9246 216.341 48.9246H215.86C215.122 48.9246 214.753 48.9246 214.753 48.6661C214.753 48.5184 214.79 48.26 214.864 48.0015C215.011 47.5953 215.048 47.5215 216.082 47.5215H217.485V47.5584Z" fill="white"/>
<path d="M224.021 55.4601C222.876 55.6817 221.695 55.7925 220.55 55.7925C219.11 55.7925 218.039 55.6448 218.039 53.9093C218.039 52.9124 218.445 51.5462 218.851 50.8446C219.59 49.5522 220.513 49.2568 222.138 49.2568C223.393 49.2568 224.501 49.4415 225.572 49.6261L224.944 51.8046C224.279 51.6939 223.615 51.62 222.876 51.62C221.325 51.62 221.141 52.6908 221.141 52.9862C221.141 53.6878 221.436 53.8724 222.322 53.8724C223.061 53.8724 223.762 53.7247 224.501 53.6139L224.021 55.4601Z" fill="white"/>
<path d="M230.409 54.3155C229.855 55.3125 228.932 55.7556 227.824 55.7556C226.716 55.7556 225.793 55.3125 225.793 54.057C225.793 53.0601 226.126 52.1 226.421 51.2508C226.901 49.8846 227.935 49.2568 229.338 49.2568C230.593 49.2568 231.332 49.6261 231.369 50.8077H231.406L231.775 49.4415H234.692L232.993 55.534H230.04L230.409 54.3155ZM228.895 52.7647C228.858 52.9124 228.821 53.097 228.821 53.2447C228.821 53.7247 229.153 53.8724 229.596 53.8724C230.335 53.8724 230.667 53.4293 230.852 52.8016C230.889 52.617 230.926 52.4693 230.926 52.2477C230.926 51.8046 230.556 51.6939 230.187 51.6939C229.375 51.62 229.116 52.0262 228.895 52.7647Z" fill="white"/>
<path d="M236.169 51.7312H235.135L235.431 50.5496C236.317 50.0327 237.868 48.8142 238.348 48.3711H240.046L239.714 49.4788H242.225L241.597 51.7312H239.086L238.754 52.9867C238.717 53.1713 238.606 53.4667 238.606 53.6144C238.606 53.8728 238.865 53.9836 239.419 53.9836C239.972 53.9836 240.415 53.8728 240.859 53.799L240.083 55.4237C239.234 55.5714 238.089 55.7191 237.277 55.7191C236.575 55.7191 235.394 55.6822 235.394 54.8329C235.394 54.5744 235.431 54.2421 235.541 53.9098L236.169 51.7312Z" fill="white"/>
<path d="M243.443 49.3677C243.775 49.4046 244.366 49.4416 244.957 49.4416C245.585 49.4416 246.028 49.4046 246.36 49.3677L244.699 55.5341H241.745L243.443 49.3677ZM246.286 47.5584C246.619 47.5584 246.803 47.6323 246.803 47.78C246.803 47.8538 246.692 48.3338 246.582 48.6292C246.508 48.9246 246.028 48.9246 245.142 48.9246H244.662C243.923 48.9246 243.554 48.9246 243.554 48.6661C243.554 48.5184 243.591 48.26 243.665 48.0015C243.812 47.5953 243.849 47.5215 244.883 47.5215H246.286V47.5584Z" fill="white"/>
<path d="M247.763 50.4753C248.28 49.663 249.019 49.2568 251.308 49.2568C252.6 49.2568 255 49.2938 255 51.1031C255 52.1 254.742 52.9862 254.336 53.8724C253.56 55.4971 252.268 55.7556 250.57 55.7556C248.945 55.7556 246.803 55.6448 246.803 53.5401C246.84 52.5431 247.209 51.3246 247.763 50.4753ZM250.57 53.8724C251.603 53.8724 251.936 52.7647 251.936 52.1369C251.936 51.62 251.714 51.4723 250.939 51.4723C250.016 51.4723 249.72 52.4323 249.72 53.3185C249.646 53.6878 249.942 53.8724 250.57 53.8724Z" fill="white"/>
<path d="M256.957 49.4786H259.874L259.505 50.9186C260.133 49.774 260.908 49.2939 262.201 49.2939C263.198 49.2939 264.084 49.6632 264.084 50.6971C264.084 51.1033 263.973 51.5094 263.862 51.9525L262.865 55.5711H259.838L260.354 53.7249C260.465 53.3556 260.613 52.7649 260.613 52.5064C260.613 52.1002 260.355 51.9894 260.022 51.9894C259.468 51.9894 259.173 52.1741 258.951 53.0972L258.324 55.5711H255.333L256.957 49.4786Z" fill="white"/>
<path d="M140.682 59.9657H138.652L139.316 57.6025H146.48L145.852 59.9657H143.821L142.566 64.7659H139.464L140.682 59.9657Z" fill="white"/>
<path d="M148.843 62.3654C148.806 62.5131 148.806 62.5869 148.806 62.6977C148.806 63.3623 149.618 63.3623 150.246 63.3623C151.206 63.3623 152.129 63.1408 153.015 62.9562L152.24 64.5439C151.169 64.8393 150.024 64.987 148.879 64.987C147.513 64.987 145.778 64.8762 145.778 63.0669C145.778 61.7376 146.369 60.2607 146.922 59.596C147.809 58.5252 148.916 58.4883 150.209 58.4883C152.904 58.4883 153.938 58.9683 153.938 60.593C153.938 60.9622 153.606 61.9592 153.421 62.3654H148.843ZM151.353 61.073C151.39 60.8884 151.427 60.7407 151.427 60.593C151.427 60.1499 150.91 60.0391 150.652 60.0391C149.95 60.0391 149.544 60.2237 149.249 61.073H151.353Z" fill="white"/>
<path d="M160.326 64.6545C159.181 64.876 158 64.9868 156.855 64.9868C155.415 64.9868 154.344 64.8391 154.344 63.1037C154.344 62.1067 154.75 60.7405 155.157 60.0389C155.895 58.7466 156.818 58.4512 158.443 58.4512C159.698 58.4512 160.806 58.6358 161.877 58.8204L161.249 60.999C160.585 60.8882 159.92 60.8143 159.181 60.8143C157.631 60.8143 157.446 61.8851 157.446 62.1805C157.446 62.8821 157.741 63.0667 158.627 63.0667C159.366 63.0667 160.068 62.919 160.806 62.8083L160.326 64.6545Z" fill="white"/>
<path d="M163.354 57.2695H166.271L165.496 60.1127C166.123 58.9681 166.899 58.488 168.191 58.488C169.188 58.488 170.074 58.8573 170.074 59.8912C170.074 60.2973 169.964 60.7035 169.853 61.1466L168.856 64.8021H165.828L166.345 62.9559C166.456 62.5867 166.603 61.9959 166.603 61.7374C166.603 61.3312 166.345 61.2205 166.013 61.2205C165.459 61.2205 165.163 61.4051 164.942 62.3282L164.314 64.8021H161.36L163.354 57.2695Z" fill="white"/>
<path d="M171.81 58.71H174.727L174.357 60.1501H174.394C175.022 59.0054 175.797 58.5254 177.09 58.5254C178.087 58.5254 178.973 58.8946 178.973 59.9285C178.973 60.3347 178.862 60.7409 178.751 61.184L177.754 64.8395H174.727L175.244 62.9933C175.354 62.624 175.502 62.0332 175.502 61.7748C175.502 61.3686 175.244 61.2578 174.911 61.2578C174.357 61.2578 174.062 61.4424 173.841 62.3655L173.213 64.8395H170.222L171.81 58.71Z" fill="white"/>
<path d="M180.376 59.7068C180.893 58.9314 181.631 58.4883 183.921 58.4883C185.213 58.4883 187.613 58.5252 187.613 60.3345C187.613 61.3315 187.355 62.2177 186.949 63.1038C186.173 64.7285 184.881 64.987 183.182 64.987C181.558 64.987 179.416 64.8762 179.416 62.7715C179.453 61.7376 179.859 60.5191 180.376 59.7068ZM183.182 63.0669C184.216 63.0669 184.549 61.9592 184.549 61.3315C184.549 60.8145 184.327 60.6668 183.552 60.6668C182.628 60.6668 182.333 61.6269 182.333 62.5131C182.296 62.9192 182.592 63.0669 183.182 63.0669Z" fill="white"/>
<path d="M189.681 57.2695H192.635L190.604 64.7652H187.687L189.681 57.2695Z" fill="white"/>
<path d="M193.3 59.7068C193.817 58.9314 194.555 58.4883 196.845 58.4883C198.137 58.4883 200.537 58.5252 200.537 60.3345C200.537 61.3315 200.279 62.2177 199.872 63.1038C199.097 64.7285 197.805 64.987 196.106 64.987C194.481 64.987 192.377 64.8762 192.377 62.7715C192.377 61.7376 192.746 60.5191 193.3 59.7068ZM196.069 63.0669C197.103 63.0669 197.435 61.9592 197.435 61.3315C197.435 60.8145 197.214 60.6668 196.438 60.6668C195.515 60.6668 195.22 61.6269 195.22 62.5131C195.183 62.9192 195.478 63.0669 196.069 63.0669Z" fill="white"/>
<path d="M208.439 64.4331C207.959 66.1686 205.596 66.3163 204.34 66.3163C203.196 66.3163 202.014 66.1686 200.906 65.8732L201.202 64.6178C201.977 64.8762 202.789 64.9501 203.639 64.9501C204.709 64.9501 205.559 64.6178 205.78 63.1777H205.743C205.263 63.8423 204.414 64.2116 203.565 64.2116C202.346 64.2116 201.128 63.8793 201.128 62.4392C201.128 61.9961 201.46 60.2976 202.088 59.5591C202.789 58.7098 203.417 58.4883 204.451 58.4883C205.522 58.4883 206.63 58.636 206.63 60.113H206.667L206.999 58.7098H209.953L208.439 64.4331ZM204.968 62.7346C205.965 62.7346 206.334 61.9223 206.334 61.1838C206.334 60.6668 205.854 60.5561 205.485 60.5561C204.562 60.5561 204.303 61.4422 204.303 62.1807C204.303 62.6238 204.599 62.7346 204.968 62.7346Z" fill="white"/>
<path d="M211.356 58.5992C211.725 58.6361 212.279 58.673 212.833 58.673H212.87C213.497 58.673 213.94 58.6361 214.273 58.5992L212.611 64.7655H209.657L211.356 58.5992ZM214.199 56.7899C214.568 56.7899 214.716 56.8637 214.716 57.0114C214.716 57.0852 214.605 57.5653 214.494 57.8607C214.42 58.1561 213.94 58.1561 213.054 58.1561H212.574C211.836 58.1561 211.467 58.1561 211.467 57.8976C211.467 57.7499 211.503 57.4914 211.577 57.2329C211.725 56.8268 211.762 56.7529 212.796 56.7529H214.199V56.7899Z" fill="white"/>
<path d="M217.448 62.3654C217.411 62.5131 217.411 62.5869 217.411 62.6977C217.411 63.3623 218.224 63.3623 218.851 63.3623C219.811 63.3623 220.735 63.1408 221.621 62.9562L220.845 64.5439C219.775 64.8393 218.63 64.987 217.485 64.987C216.119 64.987 214.384 64.8762 214.384 63.0669C214.384 61.7376 214.974 60.2607 215.528 59.596C216.414 58.5252 217.522 58.4883 218.814 58.4883C221.51 58.4883 222.544 58.9683 222.544 60.593C222.544 60.9622 222.212 61.9592 222.027 62.3654H217.448ZM219.959 61.073C219.996 60.8884 220.033 60.7407 220.033 60.593C220.033 60.1499 219.516 60.0391 219.258 60.0391C218.556 60.0391 218.15 60.2237 217.854 61.073H219.959Z" fill="white"/>
<path d="M223.024 63.104C223.836 63.2517 224.649 63.2887 225.461 63.2887C225.683 63.2887 226.68 63.2887 226.68 62.9194C226.68 62.6979 226.569 62.624 226.31 62.624C226.015 62.624 225.609 62.6609 225.166 62.6609C223.984 62.6609 223.283 62.4763 223.283 61.184C223.283 59.7808 224.021 58.5254 226.901 58.5254C227.898 58.5254 229.486 58.5254 230.815 58.7469L230.335 60.5932C229.744 60.4455 228.489 60.4085 228.12 60.4085C227.713 60.4085 226.68 60.4085 226.68 60.8147C226.68 61.0732 226.827 61.1101 227.196 61.1101C227.418 61.1101 227.75 61.0732 228.23 61.0732C229.19 61.0732 230.077 61.147 230.077 62.4025C230.077 64.8764 227.898 64.9872 226.015 64.9872C224.87 64.9872 223.799 64.9133 222.655 64.8026L223.024 63.104Z" fill="white"/>
<path d="M158.812 48.3711H161.84L161.175 50.9558H163.022L163.723 48.3711H166.788L164.868 55.5345H161.803L162.505 52.9867H160.621L159.92 55.5345H156.892L158.812 48.3711Z" fill="white"/>
<path d="M39.3615 7.27407L39.6569 6.97868C35.2629 2.62159 29.4288 0.18457 23.2255 0.18457C10.4127 0.18457 0 10.5973 0 23.4101C0 29.6134 2.40009 35.4475 6.79411 39.8415C11.1881 44.2355 17.0222 46.6356 23.2255 46.6356C29.4288 46.6356 35.2629 44.1986 39.6569 39.8415C44.0509 35.4475 46.451 29.6134 46.451 23.4101C46.451 17.2068 44.0509 11.3727 39.6569 6.97868L39.3615 7.27407L39.0661 7.56947C43.3124 11.8158 45.6387 17.4283 45.6387 23.4101C45.6387 29.3918 43.3124 35.0044 39.0661 39.2507C34.8198 43.497 29.2073 45.8232 23.2255 45.8232C17.2437 45.8232 11.6312 43.497 7.3849 39.2507C3.17551 35.0044 0.849263 29.3918 0.849263 23.4101C0.849263 17.2437 3.36013 11.6312 7.42182 7.56947C11.4466 3.5447 17.0591 1.03383 23.2255 1.03383C29.2073 1.03383 34.8198 3.36008 39.0661 7.60639L39.3615 7.27407ZM9.37882 37.2568L9.67422 36.9614C6.05562 33.3428 4.06169 28.5426 4.06169 23.4101C4.06169 18.7207 5.7233 14.3266 8.78803 10.8188L8.49263 10.5604L8.19724 10.8557L35.7798 38.4383L36.0752 38.1429L35.8168 37.8106C32.4566 40.7646 28.0626 42.537 23.2255 42.537C18.093 42.537 13.2928 40.543 9.67422 36.9244L9.37882 37.2568L9.08343 37.5522C12.8497 41.3185 17.8715 43.4231 23.2255 43.4231C28.2472 43.4231 32.8259 41.54 36.3706 38.4753L36.7029 38.1799L8.45571 9.93264L8.16031 10.265C4.98481 13.9205 3.24936 18.536 3.24936 23.4101C3.24936 28.7272 5.31713 33.7859 9.12035 37.5522L9.37882 37.2568ZM38.3276 35.8167L38.623 35.5213L11.1143 8.01256L10.8189 8.30796L11.0773 8.64028C14.5113 5.83402 18.7576 4.28319 23.2255 4.28319C28.358 4.28319 33.1582 6.27711 36.7768 9.89571C40.3954 13.5143 42.3893 18.3145 42.3893 23.447C42.3893 28.0626 40.7646 32.272 38.0322 35.5952L38.3276 35.8167L38.623 35.5213L38.3276 35.8167L38.6599 36.0752C41.5031 32.6043 43.2017 28.2103 43.2017 23.3731C43.2017 18.0191 41.1339 12.9974 37.3307 9.23107C33.6013 5.5017 28.5796 3.43393 23.2255 3.43393C18.5361 3.43393 14.1052 5.02168 10.5235 7.97564L10.1542 8.27103L38.3276 36.4444L38.623 36.0752L38.3276 35.8167Z" fill="white"/>
<path d="M241.818 57.5283H238.938L236.723 64.8024H236.797H242.963L243.628 62.587H240.268L241.818 57.5283Z" fill="white"/>
<path d="M252.896 57.8978C252.49 57.6393 251.973 57.5654 251.493 57.5654H246.729L244.514 64.8396H244.588H247.357L247.985 62.7718H249.905C251.345 62.7718 252.822 61.9964 253.413 60.1132C253.524 59.7809 253.56 59.4855 253.56 59.227C253.597 58.5624 253.302 58.1193 252.896 57.8978ZM248.982 59.3009H249.536C249.831 59.3009 250.09 59.3009 250.274 59.4117C250.459 59.4855 250.57 59.5963 250.57 59.8178L250.533 60.0763C250.311 60.8517 249.646 60.9625 248.982 60.9625H248.502L248.982 59.3009Z" fill="white"/>
<path d="M231.036 63.5098H233.695L231.886 66.833H230.372L231.036 63.5098Z" fill="white"/>
<path d="M154.012 12.6278V45.5276H138.947V12.6278H125.137V0.516602H167.01V12.6278H154.012Z" fill="white"/>
<path d="M169.668 32.8997V35.7429H185.398V45.4909H166.308C160.917 45.4909 157.852 42.3523 157.852 36.8137V24.5178C157.852 18.9791 161.36 15.3975 166.862 15.3975H183.589C188.463 15.3975 190.9 18.4253 190.9 24.5178V32.8997H169.668ZM169.668 28.1733H179.933V25.2563H169.668V28.1733Z" fill="white"/>
<path d="M202.198 45.7863C196.955 45.7863 193.706 42.4261 193.706 37.109V24.5916C193.706 19.3483 197.324 15.582 202.531 15.582H221.695V26.0317H205.78V35.3736H221.695V45.7863H202.198Z" fill="white"/>
<path d="M255.185 45.7866C251.271 45.7866 248.317 43.0173 248.317 39.3617V25.9951H237.683V45.7866H225.978V4.72656H237.683V15.6931H248.022C255.85 15.6931 260.244 15.9147 260.244 26.9551V35.3739H262.607V45.7866H255.185Z" fill="white"/>
<path d="M120.891 19.3854V36.1861H105.235V19.3854H97.7391C97.7022 8.27117 90.2434 0.517023 77.1722 0.517023L48.0757 0.40625V12.259H53.2451V34.0445H48.0757V45.4541L77.1722 45.528C81.8985 45.528 86.9941 43.7925 90.9081 40.7278V64.6549H105.235V46.5249H120.891V64.6918H135.217V19.3854H120.891ZM83.3016 25.6626C83.3016 29.5766 81.8985 32.9367 77.1722 33.2691H67.2395V12.6283H76.6183C80.7908 12.6283 83.4124 15.8776 83.4124 20.3455L83.3016 25.6626Z" fill="white"/>
<path d="M154.012 12.6278H153.606V45.0844H139.353V12.2216H125.543V0.92269H166.567V12.2216H153.606V12.6278H154.012V13.0708H167.416V0.110352H124.694V13.0708H138.504V45.9336H154.455V12.6278H154.012V13.0708V12.6278Z" fill="white"/>
<path d="M169.668 32.8996H169.262V36.1859H184.992V45.1216H166.308C163.686 45.1216 161.729 44.3831 160.363 42.98C159.034 41.6138 158.258 39.546 158.258 36.8505V24.5177C158.258 21.8222 159.108 19.6806 160.585 18.1667C162.062 16.6897 164.203 15.8036 166.825 15.8036H183.552C185.915 15.8036 187.576 16.5051 188.684 17.9082C189.829 19.3114 190.42 21.4899 190.42 24.4808V32.4934H169.188V32.8996H169.668V33.3058H191.306V24.5177C191.306 21.4161 190.678 19.0529 189.386 17.4282C188.093 15.8036 186.099 14.9912 183.589 14.9912H166.862C164.019 14.9912 161.655 15.9143 159.994 17.5759C158.332 19.2375 157.446 21.6376 157.446 24.5177V36.8505C157.446 39.6937 158.221 41.983 159.772 43.5708C161.323 45.1585 163.539 45.9709 166.308 45.9709H185.804V35.3366H170.074V32.8996H169.668V33.3058V32.8996ZM169.668 28.1733V28.5794H180.339V24.8501H169.225V28.5794H169.631V28.1733H170.037V25.6993H179.453V27.7671H169.631V28.1733H170.037H169.668Z" fill="white"/>
<path d="M202.199 45.786V45.3798C199.688 45.3798 197.694 44.5675 196.291 43.1644C194.924 41.7612 194.149 39.6935 194.149 37.1087V24.5913C194.149 22.0805 195.035 19.9389 196.512 18.425C197.989 16.911 200.057 15.9879 202.568 15.9879H221.289V25.5883H205.374V35.7795H221.289V45.3429H202.235V45.786V46.1922H222.138V34.9671H206.223V26.4376H222.138V15.1387H202.568C199.872 15.1387 197.546 16.1356 195.921 17.8342C194.297 19.5327 193.337 21.8959 193.337 24.5913V37.0718C193.337 39.8412 194.186 42.1305 195.737 43.7182C197.288 45.306 199.54 46.1922 202.235 46.1922V45.786H202.199Z" fill="white"/>
<path d="M255.185 45.7863V45.3802C251.456 45.3802 248.723 42.7954 248.723 39.3615V25.5886H237.277V45.3432H226.384V5.13247H237.277V16.099H248.059C250.016 16.099 251.751 16.099 253.228 16.2837C255.444 16.5791 257.031 17.2068 258.139 18.7576C259.247 20.3084 259.875 22.8193 259.875 26.9548V35.7798H262.238V45.3432H255.222V45.7863V46.1925H263.087V34.9675H260.724V26.9548C260.724 24.1486 260.465 22.0439 259.875 20.3823C259.062 17.9083 257.511 16.5791 255.518 15.9144C253.487 15.2498 251.013 15.2498 248.096 15.2498H238.163V4.2832H225.609V46.1925H238.163V26.4379H247.948V39.3245C247.948 41.2815 248.76 43.017 250.053 44.2355C251.382 45.454 253.191 46.1925 255.259 46.1925V45.7863H255.185Z" fill="white"/>
<path d="M120.891 19.3854H120.485V35.7798H105.641V18.9423H97.7391V19.3484H98.1453C98.1083 13.699 96.1883 8.86188 92.6066 5.46483C89.0249 2.06777 83.7816 0.110773 77.1722 0.110773L47.6326 0V12.702H52.802V33.6382H47.6326V45.8602L77.1722 45.9341C82.0093 45.9341 87.1787 44.1617 91.1665 41.06L90.9081 40.7277H90.465V65.0979H105.641V46.931H120.485V65.0979H135.661V18.9423H120.485V19.3484H120.891V19.7546H134.811V64.2486H121.334V46.0818H104.829V64.2486H91.3512V39.8785L90.6865 40.3954C86.8464 43.3863 81.8616 45.0848 77.2091 45.0848L48.5188 45.011V34.4875H53.6882V11.8528H48.5188V0.849263L77.1722 0.923112C83.6339 0.923112 88.6557 2.84319 92.0527 6.09254C95.4498 9.3419 97.296 13.9205 97.3329 19.3854V19.7915H104.829V36.6291H121.334V19.3854H120.891V19.7915V19.3854ZM83.3016 25.6625H82.8955C82.8955 27.5826 82.5631 29.318 81.6769 30.5735C80.7908 31.8289 79.4246 32.6782 77.1352 32.8628L77.1722 33.269V32.8628H67.6456V13.0713H76.6183C78.6122 13.0713 80.163 13.8098 81.2708 15.1021C82.3785 16.3945 83.0062 18.2038 83.0062 20.3454H83.4124H83.0062L82.9324 25.6625H83.3016H83.7078L83.7816 20.3454C83.7816 18.0192 83.117 15.9883 81.8616 14.5483C80.6061 13.0713 78.7968 12.222 76.5814 12.222H66.7964V33.6751H77.1722C79.6461 33.4905 81.3446 32.4936 82.3416 31.0166C83.3386 29.5396 83.7078 27.6564 83.7078 25.6256H83.3016H83.7078L83.3016 25.6625Z" fill="white"/>
</g>
<defs>
<clipPath id="clip0_448_4408">
<rect width="264.084" height="66.8333" fill="white"/>
</clipPath>
</defs>
</svg>
