<svg width="238" height="60" viewBox="0 0 238 60" fill="none" xmlns="http://www.w3.org/2000/svg">
<path d="M20.3206 4.87305C18.2322 10.6079 12.5968 17.1051 10.8399 20.4532C10.1106 21.8786 9.67969 23.4697 9.67969 25.1603C9.67969 30.862 14.4532 35.5029 20.3206 35.5029H20.4863C26.3537 35.5029 31.1272 30.862 31.1272 25.1603C31.1272 23.4697 30.6963 21.8786 29.967 20.4532C28.2101 17.1051 22.5747 10.6079 20.4863 4.87305H20.3206Z" fill="url(#paint0_radial_448_7902)"/>
<path d="M35.3357 6.53033C31.4572 2.68502 26.3191 0.563477 20.8495 0.563477C9.5456 0.563477 0.363281 9.7458 0.363281 21.0165C0.363281 26.4861 2.48483 31.6243 6.36328 35.5027C10.2417 39.3812 15.3799 41.5027 20.8495 41.5027C26.3191 41.5027 31.4572 39.3812 35.3357 35.5027C39.2141 31.6243 41.3357 26.4861 41.3357 21.0165C41.3357 15.5469 39.181 10.4088 35.3357 6.53033ZM8.41853 33.4475C5.10361 30.1325 3.28041 25.7237 3.28041 21.0165C3.28041 16.7403 4.80527 12.6629 7.62295 9.4806L32.3854 34.243C29.3025 36.9281 25.2583 38.5856 20.8495 38.5856C16.1423 38.5856 11.7334 36.7624 8.41853 33.4475ZM34.4075 32.1546L9.6782 7.4585C12.8274 4.87287 16.7058 3.4806 20.8163 3.4806C25.5235 3.4806 29.9323 5.30381 33.2473 8.61872C36.5622 11.9336 38.3854 16.3425 38.3854 21.0497C38.4185 25.2596 36.9268 29.1381 34.4075 32.1546Z" fill="#00A886"/>
<path d="M125.733 43.4258H130.606C131.601 43.4258 132.529 43.7573 132.529 45.249C132.529 46.0777 132.297 46.8733 131.833 48.0667C131.336 49.3926 130.175 49.8567 129.28 49.8567H123.977L125.733 43.4258ZM127.225 48.1661H128.253C128.883 48.1661 129.28 47.6689 129.413 47.1053C129.546 46.575 129.579 46.3098 129.579 46.1772C129.579 45.7462 129.38 45.5805 128.85 45.5805H127.954L127.225 48.1661Z" fill="#00548E"/>
<path d="M135.943 47.7014C135.91 47.834 135.91 47.9003 135.91 47.9997C135.91 48.5964 136.639 48.5964 137.202 48.5964C138.064 48.5964 138.893 48.3975 139.689 48.2318L138.993 49.6572C138.031 49.9224 137.004 50.055 135.976 50.055C134.749 50.055 133.191 49.9555 133.191 48.3312C133.191 47.1378 133.722 45.8119 134.219 45.2152C135.015 44.2539 136.009 44.2207 137.169 44.2207C139.589 44.2207 140.517 44.6516 140.517 46.1102C140.517 46.4417 140.219 47.3367 140.053 47.7014H135.943ZM138.197 46.5411C138.23 46.3754 138.263 46.2428 138.263 46.1102C138.263 45.7124 137.799 45.613 137.567 45.613C136.937 45.613 136.573 45.7787 136.307 46.5411H138.197Z" fill="#00548E"/>
<path d="M156.032 48.1989C155.701 49.3923 154.673 50.0553 152.419 50.0553C151.491 50.0553 149.469 50.0221 149.469 48.6962C149.469 48.1989 149.668 47.5359 149.8 47.0719L150.53 44.4199H153.215L152.419 47.3039C152.353 47.5359 152.286 47.8343 152.286 47.9337C152.286 48.2321 152.552 48.3647 152.817 48.3647C153.215 48.3647 153.413 48.1658 153.513 47.8011L154.441 44.4199H157.093L156.032 48.1989Z" fill="#00548E"/>
<path d="M158.552 44.4197H161.171L160.773 45.7125C161.271 44.7511 161.934 44.2539 163.061 44.2539C164.155 44.2539 164.652 44.5522 164.652 45.7125H164.685C165.05 44.7843 165.845 44.2539 166.906 44.2539C167.801 44.2539 168.53 44.6517 168.53 45.4473C168.53 45.7788 168.431 46.1766 168.365 46.4749L167.47 49.8893H164.851L165.414 47.9335C165.481 47.6351 165.613 47.2705 165.613 47.1047C165.613 46.8064 165.282 46.7069 165.05 46.7069C164.42 46.7069 164.287 47.0053 164.088 47.8672L163.558 49.9224H161.005L161.569 47.9666C161.635 47.6683 161.768 47.3036 161.768 47.1379C161.768 46.8395 161.436 46.7401 161.204 46.7401C160.575 46.7401 160.442 47.0384 160.243 47.9003L159.713 49.9556H157.16L158.552 44.4197Z" fill="#00548E"/>
<path d="M170.388 44.3205C170.72 44.3537 171.217 44.3868 171.747 44.3868H171.781C172.344 44.3868 172.742 44.3537 173.04 44.3205L171.548 49.8565H168.93L170.388 44.3205ZM172.941 42.6962C173.272 42.6962 173.405 42.7625 173.405 42.8951C173.405 42.9614 173.305 43.3924 173.206 43.6576C173.14 43.9228 172.709 43.9228 171.913 43.9228H171.515C170.852 43.9228 170.521 43.9228 170.521 43.6907C170.521 43.5581 170.554 43.3261 170.62 43.094C170.753 42.7294 170.786 42.6631 171.714 42.6631H172.941V42.6962Z" fill="#00548E"/>
<path d="M179.866 49.8894H177.215L177.546 48.7955H177.513C177.049 49.6905 176.22 50.0883 175.226 50.0883C174.231 50.0883 173.402 49.6905 173.402 48.5635C173.402 47.6684 173.701 46.8066 173.966 46.0441C174.397 44.8176 175.325 44.2541 176.585 44.2541C177.712 44.2541 178.375 44.5856 178.408 45.6463H178.441L179.104 43.1602H181.756L179.866 49.8894ZM176.187 47.3701C176.154 47.5027 176.121 47.6684 176.121 47.801C176.121 48.232 176.419 48.3646 176.817 48.3646C177.48 48.3646 177.778 47.9668 177.944 47.4033C177.977 47.2375 178.01 47.1049 178.01 46.906C178.01 46.5082 177.679 46.4088 177.347 46.4088C176.618 46.3425 176.386 46.7071 176.187 47.3701Z" fill="#00548E"/>
<path d="M182.818 44.3205C183.116 44.3537 183.647 44.3868 184.144 44.3868H184.177C184.74 44.3868 185.138 44.3537 185.437 44.3205L183.945 49.8565H181.293L182.818 44.3205ZM185.37 42.6962C185.702 42.6962 185.834 42.7625 185.834 42.8951C185.834 42.9614 185.735 43.3924 185.636 43.6576C185.569 43.9228 185.138 43.9228 184.343 43.9228H183.912C183.249 43.9228 182.917 43.9228 182.917 43.6907C182.917 43.5581 182.95 43.3261 183.017 43.094C183.149 42.7294 183.182 42.6631 184.111 42.6631H185.37V42.6962Z" fill="#00548E"/>
<path d="M186.397 47.5688H185.668L186.165 45.7787H186.894L187.226 44.3865C187.524 43.2594 188.419 43.0273 189.812 43.0273C190.508 43.0273 191.204 43.0936 191.9 43.1599L191.469 44.7843C191.171 44.7511 190.872 44.7179 190.574 44.7179C190.176 44.7179 189.878 44.7842 189.712 45.182L189.58 45.7124H191.237L190.707 47.5025H189.082L188.453 49.8229H185.801L186.397 47.5688Z" fill="#00548E"/>
<path d="M192.697 44.3205C193.028 44.3537 193.526 44.3868 194.056 44.3868H194.089C194.653 44.3868 195.05 44.3537 195.349 44.3205L193.857 49.8565H191.238L192.697 44.3205ZM195.249 42.6962C195.581 42.6962 195.713 42.7625 195.713 42.8951C195.713 42.9614 195.614 43.3924 195.515 43.6576C195.448 43.9228 195.017 43.9228 194.222 43.9228H193.791C193.128 43.9228 192.796 43.9228 192.796 43.6907C192.796 43.5581 192.829 43.3261 192.896 43.094C193.028 42.7294 193.061 42.6631 193.99 42.6631H195.249V42.6962Z" fill="#00548E"/>
<path d="M201.116 49.7898C200.089 49.9887 199.028 50.0881 198 50.0881C196.707 50.0881 195.746 49.9555 195.746 48.3975C195.746 47.5025 196.111 46.276 196.475 45.6461C197.138 44.4859 197.967 44.2207 199.426 44.2207C200.553 44.2207 201.547 44.3864 202.509 44.5522L201.945 46.508C201.348 46.4086 200.752 46.3423 200.089 46.3423C198.696 46.3423 198.531 47.3036 198.531 47.5688C198.531 48.1986 198.796 48.3644 199.591 48.3644C200.254 48.3644 200.884 48.2318 201.547 48.1323L201.116 49.7898Z" fill="#00548E"/>
<path d="M206.851 48.7621C206.353 49.6572 205.525 50.055 204.53 50.055C203.536 50.055 202.707 49.6572 202.707 48.5301C202.707 47.6351 203.005 46.7732 203.271 46.0108C203.702 44.7842 204.63 44.2207 205.889 44.2207C207.016 44.2207 207.679 44.5522 207.713 45.613H207.746L208.077 44.3864H210.696L209.171 49.8561H206.519L206.851 48.7621ZM205.492 47.3699C205.458 47.5025 205.425 47.6682 205.425 47.8008C205.425 48.2318 205.724 48.3643 206.121 48.3643C206.784 48.3643 207.083 47.9666 207.248 47.403C207.282 47.2373 207.315 47.1047 207.315 46.9058C207.315 46.508 206.983 46.4086 206.652 46.4086C205.923 46.3423 205.69 46.7069 205.492 47.3699Z" fill="#00548E"/>
<path d="M212.022 46.4424H211.094L211.359 45.3816C212.155 44.9175 213.547 43.8236 213.978 43.4258H215.503L215.204 44.4203H217.458L216.895 46.4424H214.641L214.342 47.5694C214.309 47.7352 214.21 48.0004 214.21 48.133C214.21 48.365 214.442 48.4645 214.939 48.4645C215.436 48.4645 215.834 48.365 216.232 48.2987L215.536 49.7573C214.773 49.8899 213.746 50.0225 213.016 50.0225C212.387 50.0225 211.326 49.9893 211.326 49.2269C211.326 48.9948 211.359 48.6965 211.458 48.3982L212.022 46.4424Z" fill="#00548E"/>
<path d="M218.552 44.3205C218.851 44.3537 219.381 44.3868 219.911 44.3868C220.475 44.3868 220.873 44.3537 221.171 44.3205L219.679 49.8565H217.027L218.552 44.3205ZM221.105 42.6962C221.403 42.6962 221.569 42.7625 221.569 42.8951C221.569 42.9614 221.469 43.3924 221.37 43.6576C221.304 43.9228 220.873 43.9228 220.077 43.9228H219.646C218.983 43.9228 218.652 43.9228 218.652 43.6907C218.652 43.5581 218.685 43.3261 218.751 43.094C218.884 42.7294 218.917 42.6631 219.845 42.6631H221.105V42.6962Z" fill="#00548E"/>
<path d="M222.432 45.3146C222.896 44.5853 223.559 44.2207 225.614 44.2207C226.775 44.2207 228.929 44.2539 228.929 45.8782C228.929 46.7732 228.697 47.5688 228.333 48.3643C227.637 49.8229 226.476 50.055 224.952 50.055C223.493 50.055 221.57 49.9555 221.57 48.066C221.603 47.171 221.935 46.0771 222.432 45.3146ZM224.952 48.3643C225.88 48.3643 226.178 47.3699 226.178 46.8063C226.178 46.3423 225.979 46.2097 225.283 46.2097C224.454 46.2097 224.189 47.0715 224.189 47.8671C224.123 48.1986 224.388 48.3643 224.952 48.3643Z" fill="#00548E"/>
<path d="M230.685 44.4197H233.304L232.972 45.7125C233.536 44.6848 234.232 44.2539 235.392 44.2539C236.287 44.2539 237.083 44.5854 237.083 45.5136C237.083 45.8782 236.983 46.2429 236.884 46.6406L235.989 49.8893H233.271L233.735 48.2318C233.834 47.9003 233.967 47.3699 233.967 47.1379C233.967 46.7732 233.735 46.6738 233.437 46.6738C232.939 46.6738 232.674 46.8395 232.475 47.6683L231.912 49.8893H229.227L230.685 44.4197Z" fill="#00548E"/>
<path d="M126.3 53.8344H124.477L125.073 51.7129H131.504L130.941 53.8344H129.117L127.99 58.1438H125.206L126.3 53.8344Z" fill="#00548E"/>
<path d="M133.622 55.9885C133.589 56.1211 133.589 56.1874 133.589 56.2868C133.589 56.8835 134.319 56.8835 134.882 56.8835C135.744 56.8835 136.573 56.6846 137.368 56.5189L136.672 57.9443C135.711 58.2095 134.683 58.3421 133.656 58.3421C132.429 58.3421 130.871 58.2426 130.871 56.6183C130.871 55.4249 131.401 54.099 131.899 53.5023C132.694 52.541 133.689 52.5078 134.849 52.5078C137.269 52.5078 138.197 52.9388 138.197 54.3973C138.197 54.7288 137.899 55.6238 137.733 55.9885H133.622ZM135.877 54.8283C135.91 54.6625 135.943 54.5299 135.943 54.3973C135.943 53.9995 135.479 53.9001 135.247 53.9001C134.617 53.9001 134.252 54.0658 133.987 54.8283H135.877Z" fill="#00548E"/>
<path d="M143.933 58.0447C142.905 58.2436 141.844 58.343 140.817 58.343C139.524 58.343 138.562 58.2104 138.562 56.6524C138.562 55.7574 138.927 54.5308 139.292 53.901C139.955 52.7408 140.784 52.4756 142.242 52.4756C143.369 52.4756 144.364 52.6413 145.325 52.8071L144.761 54.7629C144.165 54.6634 143.568 54.5971 142.905 54.5971C141.513 54.5971 141.347 55.5585 141.347 55.8237C141.347 56.4535 141.612 56.6192 142.408 56.6192C143.071 56.6192 143.701 56.4866 144.364 56.3872L143.933 58.0447Z" fill="#00548E"/>
<path d="M146.653 51.4141H149.272L148.576 53.9665C149.14 52.9389 149.836 52.508 150.996 52.508C151.891 52.508 152.686 52.8395 152.686 53.7676C152.686 54.1323 152.587 54.4969 152.488 54.8947L151.593 58.1765H148.874L149.338 56.519C149.438 56.1875 149.57 55.6572 149.57 55.4251C149.57 55.0605 149.338 54.961 149.04 54.961C148.543 54.961 148.278 55.1268 148.079 55.9555L147.515 58.1765H144.863L146.653 51.4141Z" fill="#00548E"/>
<path d="M154.242 52.7068H156.861L156.529 53.9996H156.562C157.126 52.972 157.822 52.541 158.982 52.541C159.877 52.541 160.673 52.8725 160.673 53.8007C160.673 54.1653 160.573 54.53 160.474 54.9278L159.579 58.2095H156.861L157.325 56.5521C157.424 56.2206 157.557 55.6902 157.557 55.4581C157.557 55.0935 157.325 54.9941 157.026 54.9941C156.529 54.9941 156.264 55.1598 156.065 55.9885L155.501 58.2095H152.816L154.242 52.7068Z" fill="#00548E"/>
<path d="M161.932 53.6017C162.396 52.9056 163.059 52.5078 165.115 52.5078C166.275 52.5078 168.429 52.541 168.429 54.1653C168.429 55.0603 168.197 55.8559 167.833 56.6515C167.137 58.11 165.976 58.3421 164.452 58.3421C162.993 58.3421 161.07 58.2426 161.07 56.3531C161.103 55.4249 161.468 54.331 161.932 53.6017ZM164.452 56.6183C165.38 56.6183 165.678 55.6238 165.678 55.0603C165.678 54.5962 165.479 54.4636 164.783 54.4636C163.954 54.4636 163.689 55.3255 163.689 56.1211C163.656 56.4857 163.921 56.6183 164.452 56.6183Z" fill="#00548E"/>
<path d="M170.286 51.4141H172.938L171.115 58.1433H168.496L170.286 51.4141Z" fill="#00548E"/>
<path d="M173.536 53.6017C174 52.9056 174.663 52.5078 176.718 52.5078C177.878 52.5078 180.033 52.541 180.033 54.1653C180.033 55.0603 179.801 55.8559 179.436 56.6515C178.74 58.11 177.58 58.3421 176.055 58.3421C174.597 58.3421 172.707 58.2426 172.707 56.3531C172.707 55.4249 173.039 54.331 173.536 53.6017ZM176.022 56.6183C176.95 56.6183 177.248 55.6238 177.248 55.0603C177.248 54.5962 177.05 54.4636 176.353 54.4636C175.525 54.4636 175.26 55.3255 175.26 56.1211C175.226 56.4857 175.492 56.6183 176.022 56.6183Z" fill="#00548E"/>
<path d="M187.126 57.8448C186.695 59.4028 184.573 59.5354 183.446 59.5354C182.419 59.5354 181.358 59.4028 180.363 59.1377L180.628 58.0106C181.325 58.2426 182.054 58.3089 182.816 58.3089C183.778 58.3089 184.54 58.0106 184.739 56.7178H184.706C184.275 57.3145 183.512 57.6459 182.75 57.6459C181.656 57.6459 180.562 57.3476 180.562 56.0548C180.562 55.657 180.861 54.1321 181.424 53.4691C182.054 52.7067 182.617 52.5078 183.546 52.5078C184.507 52.5078 185.501 52.6404 185.501 53.9664H185.535L185.833 52.7067H188.485L187.126 57.8448ZM184.01 56.32C184.905 56.32 185.236 55.5907 185.236 54.9277C185.236 54.4636 184.805 54.3642 184.474 54.3642C183.645 54.3642 183.413 55.1597 183.413 55.8227C183.413 56.2205 183.678 56.32 184.01 56.32Z" fill="#00548E"/>
<path d="M189.748 52.6077C190.079 52.6408 190.576 52.674 191.074 52.674H191.107C191.67 52.674 192.068 52.6408 192.366 52.6077L190.875 58.1436H188.223L189.748 52.6077ZM192.3 50.9833C192.632 50.9833 192.764 51.0496 192.764 51.1822C192.764 51.2485 192.665 51.6795 192.565 51.9447C192.499 52.2099 192.068 52.2099 191.272 52.2099H190.841C190.178 52.2099 189.847 52.2099 189.847 51.9778C189.847 51.8452 189.88 51.6132 189.946 51.3811C190.079 51.0165 190.112 50.9502 191.04 50.9502H192.3V50.9833Z" fill="#00548E"/>
<path d="M195.216 55.9885C195.183 56.1211 195.183 56.1874 195.183 56.2868C195.183 56.8835 195.912 56.8835 196.476 56.8835C197.338 56.8835 198.167 56.6846 198.962 56.5189L198.266 57.9443C197.305 58.2095 196.277 58.3421 195.249 58.3421C194.023 58.3421 192.465 58.2426 192.465 56.6183C192.465 55.4249 192.995 54.099 193.492 53.5023C194.288 52.541 195.283 52.5078 196.443 52.5078C198.863 52.5078 199.791 52.9388 199.791 54.3973C199.791 54.7288 199.492 55.6238 199.327 55.9885H195.216ZM197.47 54.8283C197.504 54.6625 197.537 54.5299 197.537 54.3973C197.537 53.9995 197.073 53.9001 196.841 53.9001C196.211 53.9001 195.846 54.0658 195.581 54.8283H197.47Z" fill="#00548E"/>
<path d="M200.222 56.6515C200.951 56.7841 201.681 56.8173 202.41 56.8173C202.609 56.8173 203.504 56.8173 203.504 56.4858C203.504 56.2869 203.404 56.2206 203.172 56.2206C202.907 56.2206 202.543 56.2537 202.145 56.2537C201.084 56.2537 200.454 56.088 200.454 54.9278C200.454 53.6681 201.117 52.541 203.703 52.541C204.598 52.541 206.023 52.541 207.217 52.7399L206.786 54.3974C206.255 54.2648 205.128 54.2316 204.797 54.2316C204.432 54.2316 203.504 54.2316 203.504 54.5963C203.504 54.8283 203.636 54.8615 203.968 54.8615C204.167 54.8615 204.465 54.8283 204.896 54.8283C205.758 54.8283 206.554 54.8946 206.554 56.0217C206.554 58.2427 204.598 58.3421 202.907 58.3421C201.88 58.3421 200.918 58.2758 199.891 58.1764L200.222 56.6515Z" fill="#00548E"/>
<path d="M142.575 43.4258H145.294L144.697 45.7462H146.354L146.984 43.4258H149.736L148.012 49.8567H145.26L145.89 47.5694H144.2L143.57 49.8567H140.852L142.575 43.4258Z" fill="#00548E"/>
<path d="M35.337 6.53066L35.6022 6.26546C31.6575 2.35386 26.4199 0.166016 20.8508 0.166016C9.34807 0.166016 0 9.51408 0 21.0168C0 26.5859 2.1547 31.8235 6.09945 35.7682C10.0442 39.713 15.2818 41.8677 20.8508 41.8677C26.4199 41.8677 31.6575 39.6798 35.6022 35.7682C39.547 31.8235 41.7017 26.5859 41.7017 21.0168C41.7017 15.4478 39.547 10.2102 35.6022 6.26546L35.337 6.53066L35.0718 6.79585C38.884 10.608 40.9724 15.6467 40.9724 21.0168C40.9724 26.387 38.884 31.4257 35.0718 35.2378C31.2597 39.05 26.221 41.1384 20.8508 41.1384C15.4807 41.1384 10.442 39.05 6.62983 35.2378C2.85083 31.4257 0.762431 26.387 0.762431 21.0168C0.762431 15.4809 3.01657 10.4423 6.66298 6.79585C10.2762 3.18259 15.3149 0.928447 20.8508 0.928447C26.221 0.928447 31.2597 3.01684 35.0718 6.829L35.337 6.53066ZM8.41989 33.4478L8.68508 33.1826C5.43646 29.934 3.64641 25.6246 3.64641 21.0168C3.64641 16.8069 5.13812 12.8621 7.8895 9.71298L7.62431 9.48093L7.35912 9.74613L32.1215 34.5086L32.3867 34.2434L32.1547 33.945C29.1381 36.597 25.1934 38.1881 20.8508 38.1881C16.2431 38.1881 11.9337 36.3981 8.68508 33.1494L8.41989 33.4478L8.1547 33.713C11.5359 37.0942 16.0442 38.9837 20.8508 38.9837C25.3591 38.9837 29.4696 37.2931 32.6519 34.5417L32.9503 34.2765L7.59116 8.9174L7.32597 9.21574C4.47514 12.4975 2.91713 16.6412 2.91713 21.0168C2.91713 25.7903 4.77348 30.3318 8.18785 33.713L8.41989 33.4478ZM34.4088 32.155L34.674 31.8898L9.9779 7.19364L9.71271 7.45883L9.94475 7.75718C13.0276 5.23784 16.8398 3.84557 20.8508 3.84557C25.4586 3.84557 29.768 5.63563 33.0166 8.88425C36.2652 12.1329 38.0552 16.4423 38.0552 21.05C38.0552 25.1936 36.5967 28.9726 34.1436 31.9561L34.4088 32.155L34.674 31.8898L34.4088 32.155L34.7072 32.387C37.2597 29.271 38.7845 25.3262 38.7845 20.9837C38.7845 16.1771 36.9282 11.6688 33.5138 8.28756C30.1657 4.9395 25.6575 3.08314 20.8508 3.08314C16.6409 3.08314 12.663 4.50856 9.44751 7.16049L9.11602 7.42568L34.4088 32.7185L34.674 32.387L34.4088 32.155Z" fill="#00548E"/>
<path d="M217.094 51.6465H214.508L212.52 58.1769H212.586H218.122L218.718 56.1879H215.702L217.094 51.6465Z" fill="#00548E"/>
<path d="M227.039 51.978C226.674 51.746 226.21 51.6797 225.779 51.6797H221.503L219.514 58.2101H219.58H222.066L222.63 56.3537H224.354C225.647 56.3537 226.972 55.6576 227.503 53.967C227.602 53.6686 227.635 53.4034 227.635 53.1714C227.669 52.5747 227.403 52.1769 227.039 51.978ZM223.525 53.2377H224.022C224.287 53.2377 224.519 53.2377 224.685 53.3371C224.851 53.4034 224.95 53.5029 224.95 53.7018L224.917 53.9338C224.718 54.63 224.122 54.7294 223.525 54.7294H223.094L223.525 53.2377Z" fill="#00548E"/>
<path d="M207.413 57.0166H209.8L208.176 60H206.816L207.413 57.0166Z" fill="#00548E"/>
<path d="M138.266 11.3368V40.8727H124.742V11.3368H112.344V0.463867H149.935V11.3368H138.266Z" fill="#00A886"/>
<path d="M152.319 29.5359V32.0884H166.44V40.8398H149.302C144.462 40.8398 141.711 38.0221 141.711 33.0498V22.0111C141.711 17.0387 144.86 13.8232 149.799 13.8232H164.816C169.192 13.8232 171.379 16.5415 171.379 22.0111V29.5359H152.319ZM152.319 25.2929H161.534V22.6741H152.319V25.2929Z" fill="#00A886"/>
<path d="M181.527 41.1053C176.819 41.1053 173.902 38.0887 173.902 33.3152V22.0777C173.902 17.3705 177.151 13.9893 181.825 13.9893H199.029V23.3705H184.742V31.7572H199.029V41.1053H181.527Z" fill="#00A886"/>
<path d="M229.092 41.105C225.578 41.105 222.926 38.6189 222.926 35.3371V23.3371H213.379V41.105H202.871V4.24316H213.379V14.0885H222.661C229.689 14.0885 233.634 14.2874 233.634 24.199V31.757H235.755V41.105H229.092Z" fill="#00A886"/>
<path d="M108.53 17.4029V32.4858H94.4751V17.4029H87.7458C87.7126 7.42503 81.0165 0.463705 69.2817 0.463705L43.1602 0.364258V11.0051H47.801V30.5632H43.1602V40.8063L69.2817 40.8726C73.5248 40.8726 78.0994 39.3145 81.6132 36.5632V58.0438H94.4751V41.7676H108.53V58.077H121.392V17.4029H108.53ZM74.7845 23.0383C74.7845 26.5521 73.5248 29.5687 69.2817 29.867H60.3646V11.3366H68.7845C72.5303 11.3366 74.8839 14.2538 74.8839 18.2648L74.7845 23.0383Z" fill="#00A886"/>
<path d="M138.265 11.3372H137.9V40.4753H125.104V10.9725H112.707V0.828891H149.535V10.9725H137.9V11.3372H138.265V11.735H150.298V0.0996094H111.944V11.735H124.342V41.2377H138.662V11.3372H138.265V11.735V11.3372Z" fill="#00548E"/>
<path d="M152.32 29.5363H151.955V32.4866H166.077V40.5087H149.303C146.95 40.5087 145.193 39.8457 143.966 38.5861C142.773 37.3595 142.077 35.5032 142.077 33.0833V22.0115C142.077 19.5916 142.839 17.6689 144.165 16.3098C145.491 14.9838 147.414 14.1883 149.767 14.1883H164.784C166.905 14.1883 168.397 14.8181 169.392 16.0778C170.419 17.3374 170.95 19.2932 170.95 21.9783V29.1717H151.889V29.5363H152.32V29.901H171.745V22.0115C171.745 19.2269 171.182 17.1054 170.021 15.6468C168.861 14.1883 167.071 13.459 164.817 13.459H149.8C147.248 13.459 145.126 14.2877 143.635 15.7794C142.143 17.2711 141.347 19.4258 141.347 22.0115V33.0833C141.347 35.6358 142.044 37.691 143.436 39.1164C144.828 40.5419 146.817 41.2711 149.303 41.2711H166.806V31.7242H152.684V29.5363H152.32V29.901V29.5363ZM152.32 25.2932V25.6579H161.9V22.3098H151.922V25.6579H152.287V25.2932H152.651V23.0722H161.104V24.9286H152.287V25.2932H152.651H152.32Z" fill="#00548E"/>
<path d="M181.524 41.1046V40.74C179.27 40.74 177.48 40.0107 176.22 38.751C174.994 37.4914 174.298 35.635 174.298 33.3146V22.077C174.298 19.8229 175.093 17.9002 176.419 16.5411C177.745 15.182 179.602 14.3533 181.856 14.3533H198.662V22.972H184.375V32.1212H198.662V40.7068H181.557V41.1046V41.4693H199.425V31.3919H185.137V23.7345H199.425V13.5908H181.856C179.436 13.5908 177.347 14.4858 175.889 16.0107C174.43 17.5356 173.568 19.6571 173.568 22.077V33.2814C173.568 35.7676 174.331 37.8229 175.723 39.2483C177.115 40.6737 179.137 41.4693 181.557 41.4693V41.1046H181.524Z" fill="#00548E"/>
<path d="M229.093 41.1054V40.7407C225.745 40.7407 223.292 38.4203 223.292 35.3374V22.9728H213.016V40.7076H203.237V4.60813H213.016V14.4534H222.695C224.452 14.4534 226.01 14.4534 227.336 14.6192C229.325 14.8844 230.751 15.4479 231.745 16.8402C232.74 18.2324 233.303 20.4866 233.303 24.1993V32.1219H235.425V40.7076H229.126V41.1054V41.47H236.187V31.3927H234.066V24.1993C234.066 21.68 233.834 19.7905 233.303 18.2987C232.574 16.0777 231.182 14.8844 229.392 14.2877C227.568 13.691 225.347 13.691 222.729 13.691H213.811V3.8457H202.541V41.47H213.811V23.7352H222.596V35.3043C222.596 37.0612 223.325 38.6192 224.486 39.7131C225.679 40.807 227.303 41.47 229.16 41.47V41.1054H229.093Z" fill="#00548E"/>
<path d="M108.53 17.4033H108.165V32.1215H94.8391V17.0055H87.7452V17.3702H88.1098C88.0766 12.2983 86.3529 7.9558 83.1374 4.90608C79.9219 1.85635 75.2148 0.0994475 69.2811 0.0994475L42.7617 0V11.4033H47.4026V30.1989H42.7617V41.1713L69.2811 41.2376C73.6236 41.2376 78.2645 39.6464 81.8446 36.8619L81.6125 36.5635H81.2148V58.442H94.8391V42.1326H108.165V58.442H121.789V17.0055H108.165V17.3702H108.53V17.7348H121.027V57.6796H108.927V41.3702H94.1098V57.6796H82.0103V35.8011L81.4137 36.2652C77.9661 38.9503 73.491 40.4751 69.3142 40.4751L43.5573 40.4088V30.9613H48.1982V10.6409H43.5573V0.762431L69.2811 0.828729C75.0822 0.828729 79.5905 2.55249 82.6402 5.46961C85.6899 8.38674 87.3474 12.4972 87.3805 17.4033V17.768H94.1098V32.884H108.927V17.4033H108.53V17.768V17.4033ZM74.7838 23.0387H74.4192C74.4192 24.7624 74.1208 26.3204 73.3253 27.4475C72.5297 28.5746 71.3032 29.337 69.2479 29.5028L69.2811 29.8674V29.5028H60.7286V11.7348H68.7838C70.5739 11.7348 71.9661 12.3978 72.9606 13.558C73.9551 14.7182 74.5186 16.3425 74.5186 18.2652H74.8833H74.5186L74.4523 23.0387H74.7838H75.1485L75.2148 18.2652C75.2148 16.1768 74.6181 14.3536 73.491 13.0608C72.3639 11.7348 70.7396 10.9724 68.7507 10.9724H59.9661V30.232H69.2811C71.5021 30.0663 73.0269 29.1713 73.9219 27.8453C74.817 26.5193 75.1485 24.8287 75.1485 23.0055H74.7838H75.1485L74.7838 23.0387Z" fill="#00548E"/>
<defs>
<radialGradient id="paint0_radial_448_7902" cx="0" cy="0" r="1" gradientUnits="userSpaceOnUse" gradientTransform="translate(24.2886 20.1266) scale(14.8141 14.8141)">
<stop stop-color="white"/>
<stop offset="0.2436" stop-color="#B5CDDE"/>
<stop offset="0.5167" stop-color="#689ABC"/>
<stop offset="0.7428" stop-color="#3074A3"/>
<stop offset="0.91" stop-color="#0D5D94"/>
<stop offset="1" stop-color="#00548E"/>
</radialGradient>
</defs>
</svg>
