<svg width="168" height="321" viewBox="0 0 168 321" fill="none" xmlns="http://www.w3.org/2000/svg">
<path d="M150.6 320.5C151.097 320.5 151.5 320.097 151.5 319.6C151.5 319.103 151.097 318.7 150.6 318.7C150.103 318.7 149.7 319.103 149.7 319.6C149.7 320.097 150.103 320.5 150.6 320.5Z" fill="white"/>
<path d="M129.4 320.5C129.897 320.5 130.3 320.097 130.3 319.6C130.3 319.103 129.897 318.7 129.4 318.7C128.903 318.7 128.5 319.103 128.5 319.6C128.5 320.097 128.903 320.5 129.4 320.5Z" fill="white"/>
<path d="M108.1 320.5C108.597 320.5 109 320.097 109 319.6C109 319.103 108.597 318.7 108.1 318.7C107.603 318.7 107.2 319.103 107.2 319.6C107.2 320.097 107.603 320.5 108.1 320.5Z" fill="white"/>
<path d="M86.9 320.5C87.3971 320.5 87.8 320.097 87.8 319.6C87.8 319.103 87.3971 318.7 86.9 318.7C86.4029 318.7 86 319.103 86 319.6C86 320.097 86.4029 320.5 86.9 320.5Z" fill="white"/>
<path d="M65.6 320.5C66.097 320.5 66.5 320.097 66.5 319.6C66.5 319.103 66.097 318.7 65.6 318.7C65.1029 318.7 64.7 319.103 64.7 319.6C64.7 320.097 65.1029 320.5 65.6 320.5Z" fill="white"/>
<path d="M44.2999 320.5C44.797 320.5 45.1999 320.097 45.1999 319.6C45.1999 319.103 44.797 318.7 44.2999 318.7C43.8029 318.7 43.3999 319.103 43.3999 319.6C43.3999 320.097 43.8029 320.5 44.2999 320.5Z" fill="white"/>
<path d="M150.6 300.7C151.097 300.7 151.5 300.297 151.5 299.8C151.5 299.303 151.097 298.9 150.6 298.9C150.103 298.9 149.7 299.303 149.7 299.8C149.7 300.297 150.103 300.7 150.6 300.7Z" fill="white"/>
<path d="M129.4 300.7C129.897 300.7 130.3 300.297 130.3 299.8C130.3 299.303 129.897 298.9 129.4 298.9C128.903 298.9 128.5 299.303 128.5 299.8C128.5 300.297 128.903 300.7 129.4 300.7Z" fill="white"/>
<path d="M108.1 300.7C108.597 300.7 109 300.297 109 299.8C109 299.303 108.597 298.9 108.1 298.9C107.603 298.9 107.2 299.303 107.2 299.8C107.2 300.297 107.603 300.7 108.1 300.7Z" fill="white"/>
<path d="M86.9 300.7C87.3971 300.7 87.8 300.297 87.8 299.8C87.8 299.303 87.3971 298.9 86.9 298.9C86.4029 298.9 86 299.303 86 299.8C86 300.297 86.4029 300.7 86.9 300.7Z" fill="white"/>
<path d="M65.6 300.7C66.097 300.7 66.5 300.297 66.5 299.8C66.5 299.303 66.097 298.9 65.6 298.9C65.1029 298.9 64.7 299.303 64.7 299.8C64.7 300.297 65.1029 300.7 65.6 300.7Z" fill="white"/>
<path d="M44.2999 300.7C44.797 300.7 45.1999 300.297 45.1999 299.8C45.1999 299.303 44.797 298.9 44.2999 298.9C43.8029 298.9 43.3999 299.303 43.3999 299.8C43.3999 300.297 43.8029 300.7 44.2999 300.7Z" fill="white"/>
<path d="M150.6 280.8C151.097 280.8 151.5 280.397 151.5 279.9C151.5 279.403 151.097 279 150.6 279C150.103 279 149.7 279.403 149.7 279.9C149.7 280.397 150.103 280.8 150.6 280.8Z" fill="white"/>
<path d="M129.4 280.8C129.897 280.8 130.3 280.397 130.3 279.9C130.3 279.403 129.897 279 129.4 279C128.903 279 128.5 279.403 128.5 279.9C128.5 280.397 128.903 280.8 129.4 280.8Z" fill="white"/>
<path d="M108.1 280.8C108.597 280.8 109 280.397 109 279.9C109 279.403 108.597 279 108.1 279C107.603 279 107.2 279.403 107.2 279.9C107.2 280.397 107.603 280.8 108.1 280.8Z" fill="white"/>
<path d="M86.9 280.8C87.3971 280.8 87.8 280.397 87.8 279.9C87.8 279.403 87.3971 279 86.9 279C86.4029 279 86 279.403 86 279.9C86 280.397 86.4029 280.8 86.9 280.8Z" fill="white"/>
<path d="M65.6 280.8C66.097 280.8 66.5 280.397 66.5 279.9C66.5 279.403 66.097 279 65.6 279C65.1029 279 64.7 279.403 64.7 279.9C64.7 280.397 65.1029 280.8 65.6 280.8Z" fill="white"/>
<path d="M44.2999 280.8C44.797 280.8 45.1999 280.397 45.1999 279.9C45.1999 279.403 44.797 279 44.2999 279C43.8029 279 43.3999 279.403 43.3999 279.9C43.3999 280.397 43.8029 280.8 44.2999 280.8Z" fill="white"/>
<path d="M150.6 261C151.097 261 151.5 260.597 151.5 260.1C151.5 259.603 151.097 259.2 150.6 259.2C150.103 259.2 149.7 259.603 149.7 260.1C149.7 260.597 150.103 261 150.6 261Z" fill="white"/>
<path d="M129.4 261C129.897 261 130.3 260.597 130.3 260.1C130.3 259.603 129.897 259.2 129.4 259.2C128.903 259.2 128.5 259.603 128.5 260.1C128.5 260.597 128.903 261 129.4 261Z" fill="white"/>
<path d="M108.1 261C108.597 261 109 260.597 109 260.1C109 259.603 108.597 259.2 108.1 259.2C107.603 259.2 107.2 259.603 107.2 260.1C107.2 260.597 107.603 261 108.1 261Z" fill="white"/>
<path d="M86.9 261C87.3971 261 87.8 260.597 87.8 260.1C87.8 259.603 87.3971 259.2 86.9 259.2C86.4029 259.2 86 259.603 86 260.1C86 260.597 86.4029 261 86.9 261Z" fill="white"/>
<path d="M65.6 261C66.097 261 66.5 260.597 66.5 260.1C66.5 259.603 66.097 259.2 65.6 259.2C65.1029 259.2 64.7 259.603 64.7 260.1C64.7 260.597 65.1029 261 65.6 261Z" fill="white"/>
<path d="M44.2999 261C44.797 261 45.1999 260.597 45.1999 260.1C45.1999 259.603 44.797 259.2 44.2999 259.2C43.8029 259.2 43.3999 259.603 43.3999 260.1C43.3999 260.597 43.8029 261 44.2999 261Z" fill="white"/>
<path d="M150.6 241.1C151.097 241.1 151.5 240.697 151.5 240.2C151.5 239.703 151.097 239.3 150.6 239.3C150.103 239.3 149.7 239.703 149.7 240.2C149.7 240.697 150.103 241.1 150.6 241.1Z" fill="white"/>
<path d="M129.4 241.1C129.897 241.1 130.3 240.697 130.3 240.2C130.3 239.703 129.897 239.3 129.4 239.3C128.903 239.3 128.5 239.703 128.5 240.2C128.5 240.697 128.903 241.1 129.4 241.1Z" fill="white"/>
<path d="M108.1 241.1C108.597 241.1 109 240.697 109 240.2C109 239.703 108.597 239.3 108.1 239.3C107.603 239.3 107.2 239.703 107.2 240.2C107.2 240.697 107.603 241.1 108.1 241.1Z" fill="white"/>
<path d="M86.9 241.1C87.3971 241.1 87.8 240.697 87.8 240.2C87.8 239.703 87.3971 239.3 86.9 239.3C86.4029 239.3 86 239.703 86 240.2C86 240.697 86.4029 241.1 86.9 241.1Z" fill="white"/>
<path d="M65.6 241.1C66.097 241.1 66.5 240.697 66.5 240.2C66.5 239.703 66.097 239.3 65.6 239.3C65.1029 239.3 64.7 239.703 64.7 240.2C64.7 240.697 65.1029 241.1 65.6 241.1Z" fill="white"/>
<path d="M44.2999 241.1C44.797 241.1 45.1999 240.697 45.1999 240.2C45.1999 239.703 44.797 239.3 44.2999 239.3C43.8029 239.3 43.3999 239.703 43.3999 240.2C43.3999 240.697 43.8029 241.1 44.2999 241.1Z" fill="white"/>
<path d="M150.6 221.3C151.097 221.3 151.5 220.897 151.5 220.4C151.5 219.903 151.097 219.5 150.6 219.5C150.103 219.5 149.7 219.903 149.7 220.4C149.7 220.897 150.103 221.3 150.6 221.3Z" fill="white"/>
<path d="M129.4 221.3C129.897 221.3 130.3 220.897 130.3 220.4C130.3 219.903 129.897 219.5 129.4 219.5C128.903 219.5 128.5 219.903 128.5 220.4C128.5 220.897 128.903 221.3 129.4 221.3Z" fill="white"/>
<path d="M108.1 221.3C108.597 221.3 109 220.897 109 220.4C109 219.903 108.597 219.5 108.1 219.5C107.603 219.5 107.2 219.903 107.2 220.4C107.2 220.897 107.603 221.3 108.1 221.3Z" fill="white"/>
<path d="M86.9 221.3C87.3971 221.3 87.8 220.897 87.8 220.4C87.8 219.903 87.3971 219.5 86.9 219.5C86.4029 219.5 86 219.903 86 220.4C86 220.897 86.4029 221.3 86.9 221.3Z" fill="white"/>
<path d="M65.6 221.3C66.097 221.3 66.5 220.897 66.5 220.4C66.5 219.903 66.097 219.5 65.6 219.5C65.1029 219.5 64.7 219.903 64.7 220.4C64.7 220.897 65.1029 221.3 65.6 221.3Z" fill="white"/>
<path d="M44.2999 221.3C44.797 221.3 45.1999 220.897 45.1999 220.4C45.1999 219.903 44.797 219.5 44.2999 219.5C43.8029 219.5 43.3999 219.903 43.3999 220.4C43.3999 220.897 43.8029 221.3 44.2999 221.3Z" fill="white"/>
<path d="M150.6 201.4C151.097 201.4 151.5 200.997 151.5 200.5C151.5 200.003 151.097 199.6 150.6 199.6C150.103 199.6 149.7 200.003 149.7 200.5C149.7 200.997 150.103 201.4 150.6 201.4Z" fill="white"/>
<path d="M129.4 201.4C129.897 201.4 130.3 200.997 130.3 200.5C130.3 200.003 129.897 199.6 129.4 199.6C128.903 199.6 128.5 200.003 128.5 200.5C128.5 200.997 128.903 201.4 129.4 201.4Z" fill="white"/>
<path d="M108.1 201.4C108.597 201.4 109 200.997 109 200.5C109 200.003 108.597 199.6 108.1 199.6C107.603 199.6 107.2 200.003 107.2 200.5C107.2 200.997 107.603 201.4 108.1 201.4Z" fill="white"/>
<path d="M86.9 201.4C87.3971 201.4 87.8 200.997 87.8 200.5C87.8 200.003 87.3971 199.6 86.9 199.6C86.4029 199.6 86 200.003 86 200.5C86 200.997 86.4029 201.4 86.9 201.4Z" fill="white"/>
<path d="M65.6 201.4C66.097 201.4 66.5 200.997 66.5 200.5C66.5 200.003 66.097 199.6 65.6 199.6C65.1029 199.6 64.7 200.003 64.7 200.5C64.7 200.997 65.1029 201.4 65.6 201.4Z" fill="white"/>
<path d="M44.2999 201.4C44.797 201.4 45.1999 200.997 45.1999 200.5C45.1999 200.003 44.797 199.6 44.2999 199.6C43.8029 199.6 43.3999 200.003 43.3999 200.5C43.3999 200.997 43.8029 201.4 44.2999 201.4Z" fill="white"/>
<path d="M150.6 181.6C151.097 181.6 151.5 181.197 151.5 180.7C151.5 180.203 151.097 179.8 150.6 179.8C150.103 179.8 149.7 180.203 149.7 180.7C149.7 181.197 150.103 181.6 150.6 181.6Z" fill="white"/>
<path d="M129.4 181.6C129.897 181.6 130.3 181.197 130.3 180.7C130.3 180.203 129.897 179.8 129.4 179.8C128.903 179.8 128.5 180.203 128.5 180.7C128.5 181.197 128.903 181.6 129.4 181.6Z" fill="white"/>
<path d="M108.1 181.6C108.597 181.6 109 181.197 109 180.7C109 180.203 108.597 179.8 108.1 179.8C107.603 179.8 107.2 180.203 107.2 180.7C107.2 181.197 107.603 181.6 108.1 181.6Z" fill="white"/>
<path d="M86.9 181.6C87.3971 181.6 87.8 181.197 87.8 180.7C87.8 180.203 87.3971 179.8 86.9 179.8C86.4029 179.8 86 180.203 86 180.7C86 181.197 86.4029 181.6 86.9 181.6Z" fill="white"/>
<path d="M65.6 181.6C66.097 181.6 66.5 181.197 66.5 180.7C66.5 180.203 66.097 179.8 65.6 179.8C65.1029 179.8 64.7 180.203 64.7 180.7C64.7 181.197 65.1029 181.6 65.6 181.6Z" fill="white"/>
<path d="M44.2999 181.6C44.797 181.6 45.1999 181.197 45.1999 180.7C45.1999 180.203 44.797 179.8 44.2999 179.8C43.8029 179.8 43.3999 180.203 43.3999 180.7C43.3999 181.197 43.8029 181.6 44.2999 181.6Z" fill="white"/>
<path d="M150.6 161.7C151.097 161.7 151.5 161.297 151.5 160.8C151.5 160.303 151.097 159.9 150.6 159.9C150.103 159.9 149.7 160.303 149.7 160.8C149.7 161.297 150.103 161.7 150.6 161.7Z" fill="white"/>
<path d="M129.4 161.7C129.897 161.7 130.3 161.297 130.3 160.8C130.3 160.303 129.897 159.9 129.4 159.9C128.903 159.9 128.5 160.303 128.5 160.8C128.5 161.297 128.903 161.7 129.4 161.7Z" fill="white"/>
<path d="M108.1 161.7C108.597 161.7 109 161.297 109 160.8C109 160.303 108.597 159.9 108.1 159.9C107.603 159.9 107.2 160.303 107.2 160.8C107.2 161.297 107.603 161.7 108.1 161.7Z" fill="white"/>
<path d="M86.9 161.7C87.3971 161.7 87.8 161.297 87.8 160.8C87.8 160.303 87.3971 159.9 86.9 159.9C86.4029 159.9 86 160.303 86 160.8C86 161.297 86.4029 161.7 86.9 161.7Z" fill="white"/>
<path d="M65.6 161.7C66.097 161.7 66.5 161.297 66.5 160.8C66.5 160.303 66.097 159.9 65.6 159.9C65.1029 159.9 64.7 160.303 64.7 160.8C64.7 161.297 65.1029 161.7 65.6 161.7Z" fill="white"/>
<path d="M44.2999 161.7C44.797 161.7 45.1999 161.297 45.1999 160.8C45.1999 160.303 44.797 159.9 44.2999 159.9C43.8029 159.9 43.3999 160.303 43.3999 160.8C43.3999 161.297 43.8029 161.7 44.2999 161.7Z" fill="white"/>
<path d="M150.6 141.9C151.097 141.9 151.5 141.497 151.5 141C151.5 140.503 151.097 140.1 150.6 140.1C150.103 140.1 149.7 140.503 149.7 141C149.7 141.497 150.103 141.9 150.6 141.9Z" fill="white"/>
<path d="M129.4 141.9C129.897 141.9 130.3 141.497 130.3 141C130.3 140.503 129.897 140.1 129.4 140.1C128.903 140.1 128.5 140.503 128.5 141C128.5 141.497 128.903 141.9 129.4 141.9Z" fill="white"/>
<path d="M108.1 141.9C108.597 141.9 109 141.497 109 141C109 140.503 108.597 140.1 108.1 140.1C107.603 140.1 107.2 140.503 107.2 141C107.2 141.497 107.603 141.9 108.1 141.9Z" fill="white"/>
<path d="M86.9 141.9C87.3971 141.9 87.8 141.497 87.8 141C87.8 140.503 87.3971 140.1 86.9 140.1C86.4029 140.1 86 140.503 86 141C86 141.497 86.4029 141.9 86.9 141.9Z" fill="white"/>
<path d="M65.6 141.9C66.097 141.9 66.5 141.497 66.5 141C66.5 140.503 66.097 140.1 65.6 140.1C65.1029 140.1 64.7 140.503 64.7 141C64.7 141.497 65.1029 141.9 65.6 141.9Z" fill="white"/>
<path d="M44.2999 141.9C44.797 141.9 45.1999 141.497 45.1999 141C45.1999 140.503 44.797 140.1 44.2999 140.1C43.8029 140.1 43.3999 140.503 43.3999 141C43.3999 141.497 43.8029 141.9 44.2999 141.9Z" fill="white"/>
<path d="M150.6 122C151.097 122 151.5 121.597 151.5 121.1C151.5 120.603 151.097 120.2 150.6 120.2C150.103 120.2 149.7 120.603 149.7 121.1C149.7 121.597 150.103 122 150.6 122Z" fill="white"/>
<path d="M129.4 122C129.897 122 130.3 121.597 130.3 121.1C130.3 120.603 129.897 120.2 129.4 120.2C128.903 120.2 128.5 120.603 128.5 121.1C128.5 121.597 128.903 122 129.4 122Z" fill="white"/>
<path d="M108.1 122C108.597 122 109 121.597 109 121.1C109 120.603 108.597 120.2 108.1 120.2C107.603 120.2 107.2 120.603 107.2 121.1C107.2 121.597 107.603 122 108.1 122Z" fill="white"/>
<path d="M86.9 122C87.3971 122 87.8 121.597 87.8 121.1C87.8 120.603 87.3971 120.2 86.9 120.2C86.4029 120.2 86 120.603 86 121.1C86 121.597 86.4029 122 86.9 122Z" fill="white"/>
<path d="M65.6 122C66.097 122 66.5 121.597 66.5 121.1C66.5 120.603 66.097 120.2 65.6 120.2C65.1029 120.2 64.7 120.603 64.7 121.1C64.7 121.597 65.1029 122 65.6 122Z" fill="white"/>
<path d="M44.2999 122C44.797 122 45.1999 121.597 45.1999 121.1C45.1999 120.603 44.797 120.2 44.2999 120.2C43.8029 120.2 43.3999 120.603 43.3999 121.1C43.3999 121.597 43.8029 122 44.2999 122Z" fill="white"/>
<path d="M150.6 102.2C151.097 102.2 151.5 101.797 151.5 101.3C151.5 100.803 151.097 100.4 150.6 100.4C150.103 100.4 149.7 100.803 149.7 101.3C149.7 101.797 150.103 102.2 150.6 102.2Z" fill="white"/>
<path d="M129.4 102.2C129.897 102.2 130.3 101.797 130.3 101.3C130.3 100.803 129.897 100.4 129.4 100.4C128.903 100.4 128.5 100.803 128.5 101.3C128.5 101.797 128.903 102.2 129.4 102.2Z" fill="white"/>
<path d="M108.1 102.2C108.597 102.2 109 101.797 109 101.3C109 100.803 108.597 100.4 108.1 100.4C107.603 100.4 107.2 100.803 107.2 101.3C107.2 101.797 107.603 102.2 108.1 102.2Z" fill="white"/>
<path d="M86.9 102.2C87.3971 102.2 87.8 101.797 87.8 101.3C87.8 100.803 87.3971 100.4 86.9 100.4C86.4029 100.4 86 100.803 86 101.3C86 101.797 86.4029 102.2 86.9 102.2Z" fill="white"/>
<path d="M65.6 102.2C66.097 102.2 66.5 101.797 66.5 101.3C66.5 100.803 66.097 100.4 65.6 100.4C65.1029 100.4 64.7 100.803 64.7 101.3C64.7 101.797 65.1029 102.2 65.6 102.2Z" fill="white"/>
<path d="M44.2999 102.2C44.797 102.2 45.1999 101.797 45.1999 101.3C45.1999 100.803 44.797 100.4 44.2999 100.4C43.8029 100.4 43.3999 100.803 43.3999 101.3C43.3999 101.797 43.8029 102.2 44.2999 102.2Z" fill="white"/>
<path d="M150.6 82.3C151.097 82.3 151.5 81.8971 151.5 81.4C151.5 80.9029 151.097 80.5 150.6 80.5C150.103 80.5 149.7 80.9029 149.7 81.4C149.7 81.8971 150.103 82.3 150.6 82.3Z" fill="#22233B"/>
<path d="M129.4 82.3C129.897 82.3 130.3 81.8971 130.3 81.4C130.3 80.9029 129.897 80.5 129.4 80.5C128.903 80.5 128.5 80.9029 128.5 81.4C128.5 81.8971 128.903 82.3 129.4 82.3Z" fill="#22233B"/>
<path d="M108.1 82.3C108.597 82.3 109 81.8971 109 81.4C109 80.9029 108.597 80.5 108.1 80.5C107.603 80.5 107.2 80.9029 107.2 81.4C107.2 81.8971 107.603 82.3 108.1 82.3Z" fill="#22233B"/>
<path d="M86.9 82.3C87.3971 82.3 87.8 81.8971 87.8 81.4C87.8 80.9029 87.3971 80.5 86.9 80.5C86.4029 80.5 86 80.9029 86 81.4C86 81.8971 86.4029 82.3 86.9 82.3Z" fill="#22233B"/>
<path d="M65.6 82.3C66.097 82.3 66.5 81.8971 66.5 81.4C66.5 80.9029 66.097 80.5 65.6 80.5C65.1029 80.5 64.7 80.9029 64.7 81.4C64.7 81.8971 65.1029 82.3 65.6 82.3Z" fill="#22233B"/>
<path d="M44.2999 82.3C44.797 82.3 45.1999 81.8971 45.1999 81.4C45.1999 80.9029 44.797 80.5 44.2999 80.5C43.8029 80.5 43.3999 80.9029 43.3999 81.4C43.3999 81.8971 43.8029 82.3 44.2999 82.3Z" fill="#22233B"/>
<path d="M150.6 62.5002C151.097 62.5002 151.5 62.0973 151.5 61.6002C151.5 61.1031 151.097 60.7002 150.6 60.7002C150.103 60.7002 149.7 61.1031 149.7 61.6002C149.7 62.0973 150.103 62.5002 150.6 62.5002Z" fill="#22233B"/>
<path d="M129.4 62.5002C129.897 62.5002 130.3 62.0973 130.3 61.6002C130.3 61.1031 129.897 60.7002 129.4 60.7002C128.903 60.7002 128.5 61.1031 128.5 61.6002C128.5 62.0973 128.903 62.5002 129.4 62.5002Z" fill="#22233B"/>
<path d="M108.1 62.5002C108.597 62.5002 109 62.0973 109 61.6002C109 61.1031 108.597 60.7002 108.1 60.7002C107.603 60.7002 107.2 61.1031 107.2 61.6002C107.2 62.0973 107.603 62.5002 108.1 62.5002Z" fill="#22233B"/>
<path d="M86.9 62.5002C87.3971 62.5002 87.8 62.0973 87.8 61.6002C87.8 61.1031 87.3971 60.7002 86.9 60.7002C86.4029 60.7002 86 61.1031 86 61.6002C86 62.0973 86.4029 62.5002 86.9 62.5002Z" fill="#22233B"/>
<path d="M65.6 62.5002C66.097 62.5002 66.5 62.0973 66.5 61.6002C66.5 61.1031 66.097 60.7002 65.6 60.7002C65.1029 60.7002 64.7 61.1031 64.7 61.6002C64.7 62.0973 65.1029 62.5002 65.6 62.5002Z" fill="#22233B"/>
<path d="M44.2999 62.5002C44.797 62.5002 45.1999 62.0973 45.1999 61.6002C45.1999 61.1031 44.797 60.7002 44.2999 60.7002C43.8029 60.7002 43.3999 61.1031 43.3999 61.6002C43.3999 62.0973 43.8029 62.5002 44.2999 62.5002Z" fill="#22233B"/>
<path d="M150.6 42.5998C151.097 42.5998 151.5 42.1969 151.5 41.6998C151.5 41.2027 151.097 40.7998 150.6 40.7998C150.103 40.7998 149.7 41.2027 149.7 41.6998C149.7 42.1969 150.103 42.5998 150.6 42.5998Z" fill="#22233B"/>
<path d="M129.4 42.5998C129.897 42.5998 130.3 42.1969 130.3 41.6998C130.3 41.2027 129.897 40.7998 129.4 40.7998C128.903 40.7998 128.5 41.2027 128.5 41.6998C128.5 42.1969 128.903 42.5998 129.4 42.5998Z" fill="#22233B"/>
<path d="M108.1 42.5998C108.597 42.5998 109 42.1969 109 41.6998C109 41.2027 108.597 40.7998 108.1 40.7998C107.603 40.7998 107.2 41.2027 107.2 41.6998C107.2 42.1969 107.603 42.5998 108.1 42.5998Z" fill="#22233B"/>
<path d="M86.9 42.5998C87.3971 42.5998 87.8 42.1969 87.8 41.6998C87.8 41.2027 87.3971 40.7998 86.9 40.7998C86.4029 40.7998 86 41.2027 86 41.6998C86 42.1969 86.4029 42.5998 86.9 42.5998Z" fill="#22233B"/>
<path d="M65.6 42.5998C66.097 42.5998 66.5 42.1969 66.5 41.6998C66.5 41.2027 66.097 40.7998 65.6 40.7998C65.1029 40.7998 64.7 41.2027 64.7 41.6998C64.7 42.1969 65.1029 42.5998 65.6 42.5998Z" fill="#22233B"/>
<path d="M44.2999 42.5998C44.797 42.5998 45.1999 42.1969 45.1999 41.6998C45.1999 41.2027 44.797 40.7998 44.2999 40.7998C43.8029 40.7998 43.3999 41.2027 43.3999 41.6998C43.3999 42.1969 43.8029 42.5998 44.2999 42.5998Z" fill="#22233B"/>
<path d="M150.6 21.8C151.097 21.8 151.5 21.3971 151.5 20.9C151.5 20.4029 151.097 20 150.6 20C150.103 20 149.7 20.4029 149.7 20.9C149.7 21.3971 150.103 21.8 150.6 21.8Z" fill="#22233B"/>
<path d="M129.4 21.8C129.897 21.8 130.3 21.3971 130.3 20.9C130.3 20.4029 129.897 20 129.4 20C128.903 20 128.5 20.4029 128.5 20.9C128.5 21.3971 128.903 21.8 129.4 21.8Z" fill="#22233B"/>
<path d="M108.1 21.8C108.597 21.8 109 21.3971 109 20.9C109 20.4029 108.597 20 108.1 20C107.603 20 107.2 20.4029 107.2 20.9C107.2 21.3971 107.603 21.8 108.1 21.8Z" fill="#22233B"/>
<path d="M86.9 21.8C87.3971 21.8 87.8 21.3971 87.8 20.9C87.8 20.4029 87.3971 20 86.9 20C86.4029 20 86 20.4029 86 20.9C86 21.3971 86.4029 21.8 86.9 21.8Z" fill="#22233B"/>
<path d="M65.6 21.8C66.097 21.8 66.5 21.3971 66.5 20.9C66.5 20.4029 66.097 20 65.6 20C65.1029 20 64.7 20.4029 64.7 20.9C64.7 21.3971 65.1029 21.8 65.6 21.8Z" fill="#22233B"/>
<path d="M44.2999 21.8C44.797 21.8 45.1999 21.3971 45.1999 20.9C45.1999 20.4029 44.797 20 44.2999 20C43.8029 20 43.3999 20.4029 43.3999 20.9C43.3999 21.3971 43.8029 21.8 44.2999 21.8Z" fill="#22233B"/>
<path d="M150.6 1.89961C151.097 1.89961 151.5 1.49667 151.5 0.999611C151.5 0.502555 151.097 0.0996094 150.6 0.0996094C150.103 0.0996094 149.7 0.502555 149.7 0.999611C149.7 1.49667 150.103 1.89961 150.6 1.89961Z" fill="#22233B"/>
<path d="M129.4 1.89961C129.897 1.89961 130.3 1.49667 130.3 0.999611C130.3 0.502555 129.897 0.0996094 129.4 0.0996094C128.903 0.0996094 128.5 0.502555 128.5 0.999611C128.5 1.49667 128.903 1.89961 129.4 1.89961Z" fill="#22233B"/>
<path d="M108.1 1.89961C108.597 1.89961 109 1.49667 109 0.999611C109 0.502555 108.597 0.0996094 108.1 0.0996094C107.603 0.0996094 107.2 0.502555 107.2 0.999611C107.2 1.49667 107.603 1.89961 108.1 1.89961Z" fill="#22233B"/>
<path d="M86.9 1.89961C87.3971 1.89961 87.8 1.49667 87.8 0.999611C87.8 0.502555 87.3971 0.0996094 86.9 0.0996094C86.4029 0.0996094 86 0.502555 86 0.999611C86 1.49667 86.4029 1.89961 86.9 1.89961Z" fill="#22233B"/>
<path d="M65.6 1.89961C66.097 1.89961 66.5 1.49667 66.5 0.999611C66.5 0.502555 66.097 0.0996094 65.6 0.0996094C65.1029 0.0996094 64.7 0.502555 64.7 0.999611C64.7 1.49667 65.1029 1.89961 65.6 1.89961Z" fill="#22233B"/>
<path d="M44.2999 1.89961C44.797 1.89961 45.1999 1.49667 45.1999 0.999611C45.1999 0.502555 44.797 0.0996094 44.2999 0.0996094C43.8029 0.0996094 43.3999 0.502555 43.3999 0.999611C43.3999 1.49667 43.8029 1.89961 44.2999 1.89961Z" fill="#22233B"/>
<path d="M21.6 320.5C22.097 320.5 22.5 320.097 22.5 319.6C22.5 319.103 22.097 318.7 21.6 318.7C21.1029 318.7 20.7 319.103 20.7 319.6C20.7 320.097 21.1029 320.5 21.6 320.5Z" fill="white"/>
<path d="M0.400002 320.5C0.897058 320.5 1.3 320.097 1.3 319.6C1.3 319.103 0.897058 318.7 0.400002 318.7C-0.0970547 318.7 -0.5 319.103 -0.5 319.6C-0.5 320.097 -0.0970547 320.5 0.400002 320.5Z" fill="white"/>
<path d="M21.6 300.7C22.097 300.7 22.5 300.297 22.5 299.8C22.5 299.303 22.097 298.9 21.6 298.9C21.1029 298.9 20.7 299.303 20.7 299.8C20.7 300.297 21.1029 300.7 21.6 300.7Z" fill="white"/>
<path d="M0.400002 300.7C0.897058 300.7 1.3 300.297 1.3 299.8C1.3 299.303 0.897058 298.9 0.400002 298.9C-0.0970547 298.9 -0.5 299.303 -0.5 299.8C-0.5 300.297 -0.0970547 300.7 0.400002 300.7Z" fill="white"/>
<path d="M21.6 280.8C22.097 280.8 22.5 280.397 22.5 279.9C22.5 279.403 22.097 279 21.6 279C21.1029 279 20.7 279.403 20.7 279.9C20.7 280.397 21.1029 280.8 21.6 280.8Z" fill="white"/>
<path d="M0.400002 280.8C0.897058 280.8 1.3 280.397 1.3 279.9C1.3 279.403 0.897058 279 0.400002 279C-0.0970547 279 -0.5 279.403 -0.5 279.9C-0.5 280.397 -0.0970547 280.8 0.400002 280.8Z" fill="white"/>
<path d="M21.6 261C22.097 261 22.5 260.597 22.5 260.1C22.5 259.603 22.097 259.2 21.6 259.2C21.1029 259.2 20.7 259.603 20.7 260.1C20.7 260.597 21.1029 261 21.6 261Z" fill="white"/>
<path d="M0.400002 261C0.897058 261 1.3 260.597 1.3 260.1C1.3 259.603 0.897058 259.2 0.400002 259.2C-0.0970547 259.2 -0.5 259.603 -0.5 260.1C-0.5 260.597 -0.0970547 261 0.400002 261Z" fill="white"/>
<path d="M21.6 241.1C22.097 241.1 22.5 240.697 22.5 240.2C22.5 239.703 22.097 239.3 21.6 239.3C21.1029 239.3 20.7 239.703 20.7 240.2C20.7 240.697 21.1029 241.1 21.6 241.1Z" fill="white"/>
<path d="M0.400002 241.1C0.897058 241.1 1.3 240.697 1.3 240.2C1.3 239.703 0.897058 239.3 0.400002 239.3C-0.0970547 239.3 -0.5 239.703 -0.5 240.2C-0.5 240.697 -0.0970547 241.1 0.400002 241.1Z" fill="white"/>
<path d="M21.6 221.3C22.097 221.3 22.5 220.897 22.5 220.4C22.5 219.903 22.097 219.5 21.6 219.5C21.1029 219.5 20.7 219.903 20.7 220.4C20.7 220.897 21.1029 221.3 21.6 221.3Z" fill="white"/>
<path d="M0.400002 221.3C0.897058 221.3 1.3 220.897 1.3 220.4C1.3 219.903 0.897058 219.5 0.400002 219.5C-0.0970547 219.5 -0.5 219.903 -0.5 220.4C-0.5 220.897 -0.0970547 221.3 0.400002 221.3Z" fill="white"/>
<path d="M21.6 201.4C22.097 201.4 22.5 200.997 22.5 200.5C22.5 200.003 22.097 199.6 21.6 199.6C21.1029 199.6 20.7 200.003 20.7 200.5C20.7 200.997 21.1029 201.4 21.6 201.4Z" fill="white"/>
<path d="M0.400002 201.4C0.897058 201.4 1.3 200.997 1.3 200.5C1.3 200.003 0.897058 199.6 0.400002 199.6C-0.0970547 199.6 -0.5 200.003 -0.5 200.5C-0.5 200.997 -0.0970547 201.4 0.400002 201.4Z" fill="white"/>
<path d="M21.6 181.6C22.097 181.6 22.5 181.197 22.5 180.7C22.5 180.203 22.097 179.8 21.6 179.8C21.1029 179.8 20.7 180.203 20.7 180.7C20.7 181.197 21.1029 181.6 21.6 181.6Z" fill="white"/>
<path d="M0.400002 181.6C0.897058 181.6 1.3 181.197 1.3 180.7C1.3 180.203 0.897058 179.8 0.400002 179.8C-0.0970547 179.8 -0.5 180.203 -0.5 180.7C-0.5 181.197 -0.0970547 181.6 0.400002 181.6Z" fill="white"/>
<path d="M21.6 161.7C22.097 161.7 22.5 161.297 22.5 160.8C22.5 160.303 22.097 159.9 21.6 159.9C21.1029 159.9 20.7 160.303 20.7 160.8C20.7 161.297 21.1029 161.7 21.6 161.7Z" fill="white"/>
<path d="M0.400002 161.7C0.897058 161.7 1.3 161.297 1.3 160.8C1.3 160.303 0.897058 159.9 0.400002 159.9C-0.0970547 159.9 -0.5 160.303 -0.5 160.8C-0.5 161.297 -0.0970547 161.7 0.400002 161.7Z" fill="white"/>
<path d="M21.6 141.9C22.097 141.9 22.5 141.497 22.5 141C22.5 140.503 22.097 140.1 21.6 140.1C21.1029 140.1 20.7 140.503 20.7 141C20.7 141.497 21.1029 141.9 21.6 141.9Z" fill="white"/>
<path d="M0.400002 141.9C0.897058 141.9 1.3 141.497 1.3 141C1.3 140.503 0.897058 140.1 0.400002 140.1C-0.0970547 140.1 -0.5 140.503 -0.5 141C-0.5 141.497 -0.0970547 141.9 0.400002 141.9Z" fill="white"/>
<path d="M21.6 122C22.097 122 22.5 121.597 22.5 121.1C22.5 120.603 22.097 120.2 21.6 120.2C21.1029 120.2 20.7 120.603 20.7 121.1C20.7 121.597 21.1029 122 21.6 122Z" fill="white"/>
<path d="M0.400002 122C0.897058 122 1.3 121.597 1.3 121.1C1.3 120.603 0.897058 120.2 0.400002 120.2C-0.0970547 120.2 -0.5 120.603 -0.5 121.1C-0.5 121.597 -0.0970547 122 0.400002 122Z" fill="white"/>
<path d="M21.6 102.2C22.097 102.2 22.5 101.797 22.5 101.3C22.5 100.803 22.097 100.4 21.6 100.4C21.1029 100.4 20.7 100.803 20.7 101.3C20.7 101.797 21.1029 102.2 21.6 102.2Z" fill="white"/>
<path d="M0.400002 102.2C0.897058 102.2 1.3 101.797 1.3 101.3C1.3 100.803 0.897058 100.4 0.400002 100.4C-0.0970547 100.4 -0.5 100.803 -0.5 101.3C-0.5 101.797 -0.0970547 102.2 0.400002 102.2Z" fill="white"/>
<path d="M21.6 82.3C22.097 82.3 22.5 81.8971 22.5 81.4C22.5 80.9029 22.097 80.5 21.6 80.5C21.1029 80.5 20.7 80.9029 20.7 81.4C20.7 81.8971 21.1029 82.3 21.6 82.3Z" fill="#22233B"/>
<path d="M0.400002 82.3C0.897058 82.3 1.3 81.8971 1.3 81.4C1.3 80.9029 0.897058 80.5 0.400002 80.5C-0.0970547 80.5 -0.5 80.9029 -0.5 81.4C-0.5 81.8971 -0.0970547 82.3 0.400002 82.3Z" fill="#22233B"/>
<path d="M21.6 62.5002C22.097 62.5002 22.5 62.0973 22.5 61.6002C22.5 61.1031 22.097 60.7002 21.6 60.7002C21.1029 60.7002 20.7 61.1031 20.7 61.6002C20.7 62.0973 21.1029 62.5002 21.6 62.5002Z" fill="#22233B"/>
<path d="M0.400002 62.5002C0.897058 62.5002 1.3 62.0973 1.3 61.6002C1.3 61.1031 0.897058 60.7002 0.400002 60.7002C-0.0970547 60.7002 -0.5 61.1031 -0.5 61.6002C-0.5 62.0973 -0.0970547 62.5002 0.400002 62.5002Z" fill="#22233B"/>
<path d="M21.6 42.5998C22.097 42.5998 22.5 42.1969 22.5 41.6998C22.5 41.2027 22.097 40.7998 21.6 40.7998C21.1029 40.7998 20.7 41.2027 20.7 41.6998C20.7 42.1969 21.1029 42.5998 21.6 42.5998Z" fill="#22233B"/>
<path d="M0.400002 42.5998C0.897058 42.5998 1.3 42.1969 1.3 41.6998C1.3 41.2027 0.897058 40.7998 0.400002 40.7998C-0.0970547 40.7998 -0.5 41.2027 -0.5 41.6998C-0.5 42.1969 -0.0970547 42.5998 0.400002 42.5998Z" fill="#22233B"/>
<path d="M21.6 21.8C22.097 21.8 22.5 21.3971 22.5 20.9C22.5 20.4029 22.097 20 21.6 20C21.1029 20 20.7 20.4029 20.7 20.9C20.7 21.3971 21.1029 21.8 21.6 21.8Z" fill="#22233B"/>
<path d="M0.400002 21.8C0.897058 21.8 1.3 21.3971 1.3 20.9C1.3 20.4029 0.897058 20 0.400002 20C-0.0970547 20 -0.5 20.4029 -0.5 20.9C-0.5 21.3971 -0.0970547 21.8 0.400002 21.8Z" fill="#22233B"/>
<path d="M21.6 1.89961C22.097 1.89961 22.5 1.49667 22.5 0.999611C22.5 0.502555 22.097 0.0996094 21.6 0.0996094C21.1029 0.0996094 20.7 0.502555 20.7 0.999611C20.7 1.49667 21.1029 1.89961 21.6 1.89961Z" fill="#22233B"/>
<path d="M0.400002 1.89961C0.897058 1.89961 1.3 1.49667 1.3 0.999611C1.3 0.502555 0.897058 0.0996094 0.400002 0.0996094C-0.0970547 0.0996094 -0.5 0.502555 -0.5 0.999611C-0.5 1.49667 -0.0970547 1.89961 0.400002 1.89961Z" fill="#22233B"/>
</svg>
