<svg width="31" height="124" viewBox="0 0 31 124" fill="none" xmlns="http://www.w3.org/2000/svg">
<path d="M27.8205 1.74581C27.8205 2.70999 28.5323 3.49161 29.4103 3.49161C30.2882 3.49161 31 2.70999 31 1.74581C31 0.781624 30.2882 -3.11117e-08 29.4103 -6.94899e-08C28.5323 -1.07868e-07 27.8205 0.781624 27.8205 1.74581Z" fill="url(#paint0_linear_448_7807)"/>
<path d="M27.8205 21.5847C27.8205 22.5489 28.5323 23.3305 29.4103 23.3305C30.2882 23.3305 31 22.5489 31 21.5847C31 20.6205 30.2882 19.8389 29.4103 19.8389C28.5323 19.8389 27.8205 20.6205 27.8205 21.5847Z" fill="url(#paint1_linear_448_7807)"/>
<path d="M27.8205 41.5817C27.8205 42.5459 28.5323 43.3276 29.4103 43.3276C30.2882 43.3276 31 42.5459 31 41.5817C31 40.6176 30.2882 39.8359 29.4103 39.8359C28.5323 39.8359 27.8205 40.6176 27.8205 41.5817Z" fill="url(#paint2_linear_448_7807)"/>
<path d="M27.8205 61.5798C27.8205 62.544 28.5323 63.3256 29.4103 63.3256C30.2882 63.3256 31 62.544 31 61.5798C31 60.6156 30.2882 59.834 29.4103 59.834C28.5323 59.834 27.8205 60.6156 27.8205 61.5798Z" fill="url(#paint3_linear_448_7807)"/>
<path d="M27.8205 81.4177C27.8205 82.3819 28.5323 83.1635 29.4103 83.1635C30.2882 83.1635 31 82.3819 31 81.4177C31 80.4535 30.2882 79.6719 29.4103 79.6719C28.5323 79.6719 27.8205 80.4535 27.8205 81.4177Z" fill="url(#paint4_linear_448_7807)"/>
<path d="M27.8205 101.416C27.8205 102.38 28.5323 103.162 29.4103 103.162C30.2882 103.162 31 102.38 31 101.416C31 100.452 30.2882 99.6699 29.4103 99.6699C28.5323 99.6699 27.8205 100.452 27.8205 101.416Z" fill="url(#paint5_linear_448_7807)"/>
<path d="M27.8205 121.413C27.8205 122.377 28.5323 123.159 29.4103 123.159C30.2882 123.159 31 122.377 31 121.413C31 120.449 30.2882 119.667 29.4103 119.667C28.5323 119.667 27.8205 120.449 27.8205 121.413Z" fill="url(#paint6_linear_448_7807)"/>
<path d="M13.9885 1.74581C13.9885 2.70999 14.7002 3.49161 15.5782 3.49161C16.4562 3.49161 17.168 2.70999 17.168 1.74581C17.168 0.781624 16.4562 -3.11117e-08 15.5782 -6.94899e-08C14.7002 -1.07868e-07 13.9885 0.781624 13.9885 1.74581Z" fill="url(#paint7_linear_448_7807)"/>
<path d="M13.9885 21.5847C13.9885 22.5489 14.7002 23.3305 15.5782 23.3305C16.4562 23.3305 17.168 22.5489 17.168 21.5847C17.168 20.6205 16.4562 19.8389 15.5782 19.8389C14.7002 19.8389 13.9885 20.6205 13.9885 21.5847Z" fill="url(#paint8_linear_448_7807)"/>
<path d="M13.9885 41.5817C13.9885 42.5459 14.7002 43.3276 15.5782 43.3276C16.4562 43.3276 17.168 42.5459 17.168 41.5817C17.168 40.6176 16.4562 39.8359 15.5782 39.8359C14.7002 39.8359 13.9885 40.6176 13.9885 41.5817Z" fill="url(#paint9_linear_448_7807)"/>
<path d="M13.9885 61.5798C13.9885 62.544 14.7002 63.3256 15.5782 63.3256C16.4562 63.3256 17.168 62.544 17.168 61.5798C17.168 60.6156 16.4562 59.834 15.5782 59.834C14.7002 59.834 13.9885 60.6156 13.9885 61.5798Z" fill="url(#paint10_linear_448_7807)"/>
<path d="M13.9885 81.4177C13.9885 82.3819 14.7002 83.1635 15.5782 83.1635C16.4562 83.1635 17.168 82.3819 17.168 81.4177C17.168 80.4535 16.4562 79.6719 15.5782 79.6719C14.7002 79.6719 13.9885 80.4535 13.9885 81.4177Z" fill="url(#paint11_linear_448_7807)"/>
<path d="M13.9885 101.416C13.9885 102.38 14.7002 103.162 15.5782 103.162C16.4562 103.162 17.168 102.38 17.168 101.416C17.168 100.452 16.4562 99.6699 15.5782 99.6699C14.7002 99.6699 13.9885 100.452 13.9885 101.416Z" fill="url(#paint12_linear_448_7807)"/>
<path d="M13.9885 121.413C13.9885 122.377 14.7002 123.159 15.5782 123.159C16.4562 123.159 17.168 122.377 17.168 121.413C17.168 120.449 16.4562 119.667 15.5782 119.667C14.7002 119.667 13.9885 120.449 13.9885 121.413Z" fill="url(#paint13_linear_448_7807)"/>
<path d="M-4.39453e-05 1.74581C-4.39875e-05 2.70999 0.711708 3.49161 1.5897 3.49161C2.46769 3.49161 3.17944 2.70999 3.17944 1.74581C3.17944 0.781624 2.46769 -3.11117e-08 1.5897 -6.94899e-08C0.711709 -1.07868e-07 -4.39032e-05 0.781624 -4.39453e-05 1.74581Z" fill="url(#paint14_linear_448_7807)"/>
<path d="M-4.39453e-05 21.5847C-4.39875e-05 22.5489 0.711708 23.3305 1.5897 23.3305C2.46769 23.3305 3.17944 22.5489 3.17944 21.5847C3.17944 20.6205 2.46769 19.8389 1.5897 19.8389C0.711709 19.8389 -4.39032e-05 20.6205 -4.39453e-05 21.5847Z" fill="url(#paint15_linear_448_7807)"/>
<path d="M-4.39453e-05 41.5817C-4.39875e-05 42.5459 0.711708 43.3276 1.5897 43.3276C2.46769 43.3276 3.17944 42.5459 3.17944 41.5817C3.17944 40.6176 2.46769 39.8359 1.5897 39.8359C0.711709 39.8359 -4.39032e-05 40.6176 -4.39453e-05 41.5817Z" fill="url(#paint16_linear_448_7807)"/>
<path d="M-4.39453e-05 61.5798C-4.39875e-05 62.544 0.711708 63.3256 1.5897 63.3256C2.46769 63.3256 3.17944 62.544 3.17944 61.5798C3.17944 60.6156 2.46769 59.834 1.5897 59.834C0.711709 59.834 -4.39032e-05 60.6156 -4.39453e-05 61.5798Z" fill="url(#paint17_linear_448_7807)"/>
<path d="M-4.39453e-05 81.4177C-4.39875e-05 82.3819 0.711708 83.1635 1.5897 83.1635C2.46769 83.1635 3.17944 82.3819 3.17944 81.4177C3.17944 80.4535 2.46769 79.6719 1.5897 79.6719C0.711709 79.6719 -4.39032e-05 80.4535 -4.39453e-05 81.4177Z" fill="url(#paint18_linear_448_7807)"/>
<path d="M-4.39453e-05 101.416C-4.39875e-05 102.38 0.711708 103.162 1.5897 103.162C2.46769 103.162 3.17944 102.38 3.17944 101.416C3.17944 100.452 2.46769 99.6699 1.5897 99.6699C0.711709 99.6699 -4.39032e-05 100.452 -4.39453e-05 101.416Z" fill="url(#paint19_linear_448_7807)"/>
<path d="M-4.39453e-05 121.413C-4.39875e-05 122.377 0.711708 123.159 1.5897 123.159C2.46769 123.159 3.17944 122.377 3.17944 121.413C3.17944 120.449 2.46769 119.667 1.5897 119.667C0.711709 119.667 -4.39032e-05 120.449 -4.39453e-05 121.413Z" fill="url(#paint20_linear_448_7807)"/>
<defs>
<linearGradient id="paint0_linear_448_7807" x1="29.394" y1="-7.01987e-08" x2="29.394" y2="3.33639" gradientUnits="userSpaceOnUse">
<stop offset="0.28" stop-color="white"/>
<stop offset="1" stop-color="#E1E6E9"/>
</linearGradient>
<linearGradient id="paint1_linear_448_7807" x1="29.394" y1="19.9516" x2="29.394" y2="23.2878" gradientUnits="userSpaceOnUse">
<stop offset="0.28" stop-color="white"/>
<stop offset="1" stop-color="#E1E6E9"/>
</linearGradient>
<linearGradient id="paint2_linear_448_7807" x1="29.394" y1="39.9024" x2="29.394" y2="43.2388" gradientUnits="userSpaceOnUse">
<stop offset="0.28" stop-color="white"/>
<stop offset="1" stop-color="#E1E6E9"/>
</linearGradient>
<linearGradient id="paint3_linear_448_7807" x1="29.394" y1="59.8545" x2="29.394" y2="63.1909" gradientUnits="userSpaceOnUse">
<stop offset="0.28" stop-color="white"/>
<stop offset="1" stop-color="#E1E6E9"/>
</linearGradient>
<linearGradient id="paint4_linear_448_7807" x1="29.394" y1="79.8052" x2="29.394" y2="83.1413" gradientUnits="userSpaceOnUse">
<stop offset="0.28" stop-color="white"/>
<stop offset="1" stop-color="#E1E6E9"/>
</linearGradient>
<linearGradient id="paint5_linear_448_7807" x1="29.394" y1="99.7571" x2="29.394" y2="103.093" gradientUnits="userSpaceOnUse">
<stop offset="0.28" stop-color="white"/>
<stop offset="1" stop-color="#E1E6E9"/>
</linearGradient>
<linearGradient id="paint6_linear_448_7807" x1="29.394" y1="119.708" x2="29.394" y2="123.044" gradientUnits="userSpaceOnUse">
<stop offset="0.28" stop-color="white"/>
<stop offset="1" stop-color="#E1E6E9"/>
</linearGradient>
<linearGradient id="paint7_linear_448_7807" x1="15.5164" y1="-7.2193e-08" x2="15.5164" y2="3.33639" gradientUnits="userSpaceOnUse">
<stop offset="0.28" stop-color="white"/>
<stop offset="1" stop-color="#E1E6E9"/>
</linearGradient>
<linearGradient id="paint8_linear_448_7807" x1="15.5164" y1="19.9516" x2="15.5164" y2="23.2878" gradientUnits="userSpaceOnUse">
<stop offset="0.28" stop-color="white"/>
<stop offset="1" stop-color="#E1E6E9"/>
</linearGradient>
<linearGradient id="paint9_linear_448_7807" x1="15.5164" y1="39.9024" x2="15.5164" y2="43.2388" gradientUnits="userSpaceOnUse">
<stop offset="0.28" stop-color="white"/>
<stop offset="1" stop-color="#E1E6E9"/>
</linearGradient>
<linearGradient id="paint10_linear_448_7807" x1="15.5164" y1="59.8545" x2="15.5164" y2="63.1909" gradientUnits="userSpaceOnUse">
<stop offset="0.28" stop-color="white"/>
<stop offset="1" stop-color="#E1E6E9"/>
</linearGradient>
<linearGradient id="paint11_linear_448_7807" x1="15.5164" y1="79.8052" x2="15.5164" y2="83.1413" gradientUnits="userSpaceOnUse">
<stop offset="0.28" stop-color="white"/>
<stop offset="1" stop-color="#E1E6E9"/>
</linearGradient>
<linearGradient id="paint12_linear_448_7807" x1="15.5164" y1="99.7571" x2="15.5164" y2="103.093" gradientUnits="userSpaceOnUse">
<stop offset="0.28" stop-color="white"/>
<stop offset="1" stop-color="#E1E6E9"/>
</linearGradient>
<linearGradient id="paint13_linear_448_7807" x1="15.5164" y1="119.708" x2="15.5164" y2="123.044" gradientUnits="userSpaceOnUse">
<stop offset="0.28" stop-color="white"/>
<stop offset="1" stop-color="#E1E6E9"/>
</linearGradient>
<linearGradient id="paint14_linear_448_7807" x1="1.64137" y1="-6.72315e-08" x2="1.64137" y2="3.33639" gradientUnits="userSpaceOnUse">
<stop offset="0.28" stop-color="white"/>
<stop offset="1" stop-color="#E1E6E9"/>
</linearGradient>
<linearGradient id="paint15_linear_448_7807" x1="1.64137" y1="19.9516" x2="1.64137" y2="23.2878" gradientUnits="userSpaceOnUse">
<stop offset="0.28" stop-color="white"/>
<stop offset="1" stop-color="#E1E6E9"/>
</linearGradient>
<linearGradient id="paint16_linear_448_7807" x1="1.64137" y1="39.9024" x2="1.64137" y2="43.2388" gradientUnits="userSpaceOnUse">
<stop offset="0.28" stop-color="white"/>
<stop offset="1" stop-color="#E1E6E9"/>
</linearGradient>
<linearGradient id="paint17_linear_448_7807" x1="1.64137" y1="59.8545" x2="1.64137" y2="63.1909" gradientUnits="userSpaceOnUse">
<stop offset="0.28" stop-color="white"/>
<stop offset="1" stop-color="#E1E6E9"/>
</linearGradient>
<linearGradient id="paint18_linear_448_7807" x1="1.64137" y1="79.8052" x2="1.64137" y2="83.1413" gradientUnits="userSpaceOnUse">
<stop offset="0.28" stop-color="white"/>
<stop offset="1" stop-color="#E1E6E9"/>
</linearGradient>
<linearGradient id="paint19_linear_448_7807" x1="1.64137" y1="99.7571" x2="1.64137" y2="103.093" gradientUnits="userSpaceOnUse">
<stop offset="0.28" stop-color="white"/>
<stop offset="1" stop-color="#E1E6E9"/>
</linearGradient>
<linearGradient id="paint20_linear_448_7807" x1="1.64137" y1="119.708" x2="1.64137" y2="123.044" gradientUnits="userSpaceOnUse">
<stop offset="0.28" stop-color="white"/>
<stop offset="1" stop-color="#E1E6E9"/>
</linearGradient>
</defs>
</svg>
