<svg width="158" height="739" viewBox="0 0 158 739" fill="none" xmlns="http://www.w3.org/2000/svg">
<path d="M157.099 739C157.596 739 157.999 738.597 157.999 738.099C157.999 737.602 157.596 737.198 157.099 737.198C156.602 737.198 156.199 737.602 156.199 738.099C156.199 738.597 156.602 739 157.099 739Z" fill="#22233B"/>
<path d="M135.9 739C136.397 739 136.8 738.597 136.8 738.099C136.8 737.602 136.397 737.198 135.9 737.198C135.403 737.198 135 737.602 135 738.099C135 738.597 135.403 739 135.9 739Z" fill="#22233B"/>
<path d="M114.599 739C115.096 739 115.499 738.597 115.499 738.099C115.499 737.602 115.096 737.198 114.599 737.198C114.102 737.198 113.699 737.602 113.699 738.099C113.699 738.597 114.102 739 114.599 739Z" fill="#22233B"/>
<path d="M93.4 739C93.8971 739 94.3 738.597 94.3 738.099C94.3 737.602 93.8971 737.198 93.4 737.198C92.9029 737.198 92.5 737.602 92.5 738.099C92.5 738.597 92.9029 739 93.4 739Z" fill="#22233B"/>
<path d="M72.0992 739C72.5962 739 72.9992 738.597 72.9992 738.099C72.9992 737.602 72.5962 737.198 72.0992 737.198C71.6022 737.198 71.1992 737.602 71.1992 738.099C71.1992 738.597 71.6022 739 72.0992 739Z" fill="#22233B"/>
<path d="M50.9 739C51.3971 739 51.8 738.597 51.8 738.099C51.8 737.602 51.3971 737.198 50.9 737.198C50.4029 737.198 50 737.602 50 738.099C50 738.597 50.4029 739 50.9 739Z" fill="#22233B"/>
<path d="M29.5992 739C30.0963 739 30.4992 738.597 30.4992 738.099C30.4992 737.602 30.0963 737.198 29.5992 737.198C29.1022 737.198 28.6992 737.602 28.6992 738.099C28.6992 738.597 29.1022 739 29.5992 739Z" fill="#22233B"/>
<path d="M8.29845 739C8.7955 739 9.19844 738.597 9.19844 738.099C9.19844 737.602 8.7955 737.198 8.29845 737.198C7.80139 737.198 7.39844 737.602 7.39844 738.099C7.39844 738.597 7.80139 739 8.29845 739Z" fill="#22233B"/>
<path d="M157.099 719.178C157.596 719.178 157.999 718.775 157.999 718.277C157.999 717.779 157.596 717.376 157.099 717.376C156.602 717.376 156.199 717.779 156.199 718.277C156.199 718.775 156.602 719.178 157.099 719.178Z" fill="#22233B"/>
<path d="M135.9 719.178C136.397 719.178 136.8 718.775 136.8 718.277C136.8 717.779 136.397 717.376 135.9 717.376C135.403 717.376 135 717.779 135 718.277C135 718.775 135.403 719.178 135.9 719.178Z" fill="#22233B"/>
<path d="M114.599 719.178C115.096 719.178 115.499 718.775 115.499 718.277C115.499 717.779 115.096 717.376 114.599 717.376C114.102 717.376 113.699 717.779 113.699 718.277C113.699 718.775 114.102 719.178 114.599 719.178Z" fill="#22233B"/>
<path d="M93.4 719.178C93.8971 719.178 94.3 718.775 94.3 718.277C94.3 717.779 93.8971 717.376 93.4 717.376C92.9029 717.376 92.5 717.779 92.5 718.277C92.5 718.775 92.9029 719.178 93.4 719.178Z" fill="#22233B"/>
<path d="M72.0992 719.178C72.5962 719.178 72.9992 718.775 72.9992 718.277C72.9992 717.779 72.5962 717.376 72.0992 717.376C71.6022 717.376 71.1992 717.779 71.1992 718.277C71.1992 718.775 71.6022 719.178 72.0992 719.178Z" fill="#22233B"/>
<path d="M50.9 719.178C51.3971 719.178 51.8 718.775 51.8 718.277C51.8 717.779 51.3971 717.376 50.9 717.376C50.4029 717.376 50 717.779 50 718.277C50 718.775 50.4029 719.178 50.9 719.178Z" fill="#22233B"/>
<path d="M29.5992 719.178C30.0963 719.178 30.4992 718.775 30.4992 718.277C30.4992 717.779 30.0963 717.376 29.5992 717.376C29.1022 717.376 28.6992 717.779 28.6992 718.277C28.6992 718.775 29.1022 719.178 29.5992 719.178Z" fill="#22233B"/>
<path d="M8.29845 719.178C8.7955 719.178 9.19844 718.775 9.19844 718.277C9.19844 717.779 8.7955 717.376 8.29845 717.376C7.80139 717.376 7.39844 717.779 7.39844 718.277C7.39844 718.775 7.80139 719.178 8.29845 719.178Z" fill="#22233B"/>
<path d="M157.099 699.255C157.596 699.255 157.999 698.852 157.999 698.354C157.999 697.857 157.596 697.453 157.099 697.453C156.602 697.453 156.199 697.857 156.199 698.354C156.199 698.852 156.602 699.255 157.099 699.255Z" fill="#22233B"/>
<path d="M135.9 699.255C136.397 699.255 136.8 698.852 136.8 698.354C136.8 697.857 136.397 697.453 135.9 697.453C135.403 697.453 135 697.857 135 698.354C135 698.852 135.403 699.255 135.9 699.255Z" fill="#22233B"/>
<path d="M114.599 699.255C115.096 699.255 115.499 698.852 115.499 698.354C115.499 697.857 115.096 697.453 114.599 697.453C114.102 697.453 113.699 697.857 113.699 698.354C113.699 698.852 114.102 699.255 114.599 699.255Z" fill="#22233B"/>
<path d="M93.4 699.255C93.8971 699.255 94.3 698.852 94.3 698.354C94.3 697.857 93.8971 697.453 93.4 697.453C92.9029 697.453 92.5 697.857 92.5 698.354C92.5 698.852 92.9029 699.255 93.4 699.255Z" fill="#22233B"/>
<path d="M72.0992 699.255C72.5962 699.255 72.9992 698.852 72.9992 698.354C72.9992 697.857 72.5962 697.453 72.0992 697.453C71.6022 697.453 71.1992 697.857 71.1992 698.354C71.1992 698.852 71.6022 699.255 72.0992 699.255Z" fill="#22233B"/>
<path d="M50.9 699.255C51.3971 699.255 51.8 698.852 51.8 698.354C51.8 697.857 51.3971 697.453 50.9 697.453C50.4029 697.453 50 697.857 50 698.354C50 698.852 50.4029 699.255 50.9 699.255Z" fill="#22233B"/>
<path d="M29.5992 699.255C30.0963 699.255 30.4992 698.852 30.4992 698.354C30.4992 697.857 30.0963 697.453 29.5992 697.453C29.1022 697.453 28.6992 697.857 28.6992 698.354C28.6992 698.852 29.1022 699.255 29.5992 699.255Z" fill="#22233B"/>
<path d="M8.29845 699.255C8.7955 699.255 9.19844 698.852 9.19844 698.354C9.19844 697.857 8.7955 697.453 8.29845 697.453C7.80139 697.453 7.39844 697.857 7.39844 698.354C7.39844 698.852 7.80139 699.255 8.29845 699.255Z" fill="#22233B"/>
<path d="M157.099 679.433C157.596 679.433 157.999 679.029 157.999 678.532C157.999 678.034 157.596 677.631 157.099 677.631C156.602 677.631 156.199 678.034 156.199 678.532C156.199 679.029 156.602 679.433 157.099 679.433Z" fill="#22233B"/>
<path d="M135.9 679.433C136.397 679.433 136.8 679.029 136.8 678.532C136.8 678.034 136.397 677.631 135.9 677.631C135.403 677.631 135 678.034 135 678.532C135 679.029 135.403 679.433 135.9 679.433Z" fill="#22233B"/>
<path d="M114.599 679.433C115.096 679.433 115.499 679.029 115.499 678.532C115.499 678.034 115.096 677.631 114.599 677.631C114.102 677.631 113.699 678.034 113.699 678.532C113.699 679.029 114.102 679.433 114.599 679.433Z" fill="#22233B"/>
<path d="M93.4 679.433C93.8971 679.433 94.3 679.029 94.3 678.532C94.3 678.034 93.8971 677.631 93.4 677.631C92.9029 677.631 92.5 678.034 92.5 678.532C92.5 679.029 92.9029 679.433 93.4 679.433Z" fill="#22233B"/>
<path d="M72.0992 679.433C72.5962 679.433 72.9992 679.029 72.9992 678.532C72.9992 678.034 72.5962 677.631 72.0992 677.631C71.6022 677.631 71.1992 678.034 71.1992 678.532C71.1992 679.029 71.6022 679.433 72.0992 679.433Z" fill="#22233B"/>
<path d="M50.9 679.433C51.3971 679.433 51.8 679.029 51.8 678.532C51.8 678.034 51.3971 677.631 50.9 677.631C50.4029 677.631 50 678.034 50 678.532C50 679.029 50.4029 679.433 50.9 679.433Z" fill="#22233B"/>
<path d="M29.5992 679.433C30.0963 679.433 30.4992 679.029 30.4992 678.532C30.4992 678.034 30.0963 677.631 29.5992 677.631C29.1022 677.631 28.6992 678.034 28.6992 678.532C28.6992 679.029 29.1022 679.433 29.5992 679.433Z" fill="#22233B"/>
<path d="M8.29845 679.433C8.7955 679.433 9.19844 679.029 9.19844 678.532C9.19844 678.034 8.7955 677.631 8.29845 677.631C7.80139 677.631 7.39844 678.034 7.39844 678.532C7.39844 679.029 7.80139 679.433 8.29845 679.433Z" fill="#22233B"/>
<path d="M157.099 659.51C157.596 659.51 157.999 659.107 157.999 658.609C157.999 658.111 157.596 657.708 157.099 657.708C156.602 657.708 156.199 658.111 156.199 658.609C156.199 659.107 156.602 659.51 157.099 659.51Z" fill="#22233B"/>
<path d="M135.9 659.51C136.397 659.51 136.8 659.107 136.8 658.609C136.8 658.111 136.397 657.708 135.9 657.708C135.403 657.708 135 658.111 135 658.609C135 659.107 135.403 659.51 135.9 659.51Z" fill="#22233B"/>
<path d="M114.599 659.51C115.096 659.51 115.499 659.107 115.499 658.609C115.499 658.111 115.096 657.708 114.599 657.708C114.102 657.708 113.699 658.111 113.699 658.609C113.699 659.107 114.102 659.51 114.599 659.51Z" fill="#22233B"/>
<path d="M93.4 659.51C93.8971 659.51 94.3 659.107 94.3 658.609C94.3 658.111 93.8971 657.708 93.4 657.708C92.9029 657.708 92.5 658.111 92.5 658.609C92.5 659.107 92.9029 659.51 93.4 659.51Z" fill="#22233B"/>
<path d="M72.0992 659.51C72.5962 659.51 72.9992 659.107 72.9992 658.609C72.9992 658.111 72.5962 657.708 72.0992 657.708C71.6022 657.708 71.1992 658.111 71.1992 658.609C71.1992 659.107 71.6022 659.51 72.0992 659.51Z" fill="#22233B"/>
<path d="M50.9 659.51C51.3971 659.51 51.8 659.107 51.8 658.609C51.8 658.111 51.3971 657.708 50.9 657.708C50.4029 657.708 50 658.111 50 658.609C50 659.107 50.4029 659.51 50.9 659.51Z" fill="#22233B"/>
<path d="M29.5992 659.51C30.0963 659.51 30.4992 659.107 30.4992 658.609C30.4992 658.111 30.0963 657.708 29.5992 657.708C29.1022 657.708 28.6992 658.111 28.6992 658.609C28.6992 659.107 29.1022 659.51 29.5992 659.51Z" fill="#22233B"/>
<path d="M8.29845 659.51C8.7955 659.51 9.19844 659.107 9.19844 658.609C9.19844 658.111 8.7955 657.708 8.29845 657.708C7.80139 657.708 7.39844 658.111 7.39844 658.609C7.39844 659.107 7.80139 659.51 8.29845 659.51Z" fill="#22233B"/>
<path d="M157.099 639.688C157.596 639.688 157.999 639.284 157.999 638.787C157.999 638.289 157.596 637.886 157.099 637.886C156.602 637.886 156.199 638.289 156.199 638.787C156.199 639.284 156.602 639.688 157.099 639.688Z" fill="#22233B"/>
<path d="M135.9 639.688C136.397 639.688 136.8 639.284 136.8 638.787C136.8 638.289 136.397 637.886 135.9 637.886C135.403 637.886 135 638.289 135 638.787C135 639.284 135.403 639.688 135.9 639.688Z" fill="#22233B"/>
<path d="M114.599 639.688C115.096 639.688 115.499 639.284 115.499 638.787C115.499 638.289 115.096 637.886 114.599 637.886C114.102 637.886 113.699 638.289 113.699 638.787C113.699 639.284 114.102 639.688 114.599 639.688Z" fill="#22233B"/>
<path d="M93.4 639.688C93.8971 639.688 94.3 639.284 94.3 638.787C94.3 638.289 93.8971 637.886 93.4 637.886C92.9029 637.886 92.5 638.289 92.5 638.787C92.5 639.284 92.9029 639.688 93.4 639.688Z" fill="#22233B"/>
<path d="M72.0992 639.688C72.5962 639.688 72.9992 639.284 72.9992 638.787C72.9992 638.289 72.5962 637.886 72.0992 637.886C71.6022 637.886 71.1992 638.289 71.1992 638.787C71.1992 639.284 71.6022 639.688 72.0992 639.688Z" fill="#22233B"/>
<path d="M50.9 639.688C51.3971 639.688 51.8 639.284 51.8 638.787C51.8 638.289 51.3971 637.886 50.9 637.886C50.4029 637.886 50 638.289 50 638.787C50 639.284 50.4029 639.688 50.9 639.688Z" fill="#22233B"/>
<path d="M29.5992 639.688C30.0963 639.688 30.4992 639.284 30.4992 638.787C30.4992 638.289 30.0963 637.886 29.5992 637.886C29.1022 637.886 28.6992 638.289 28.6992 638.787C28.6992 639.284 29.1022 639.688 29.5992 639.688Z" fill="#22233B"/>
<path d="M8.29845 639.688C8.7955 639.688 9.19844 639.284 9.19844 638.787C9.19844 638.289 8.7955 637.886 8.29845 637.886C7.80139 637.886 7.39844 638.289 7.39844 638.787C7.39844 639.284 7.80139 639.688 8.29845 639.688Z" fill="#22233B"/>
<path d="M157.099 619.766C157.596 619.766 157.999 619.362 157.999 618.865C157.999 618.367 157.596 617.964 157.099 617.964C156.602 617.964 156.199 618.367 156.199 618.865C156.199 619.362 156.602 619.766 157.099 619.766Z" fill="#22233B"/>
<path d="M135.9 619.766C136.397 619.766 136.8 619.362 136.8 618.865C136.8 618.367 136.397 617.964 135.9 617.964C135.403 617.964 135 618.367 135 618.865C135 619.362 135.403 619.766 135.9 619.766Z" fill="#22233B"/>
<path d="M114.599 619.766C115.096 619.766 115.499 619.362 115.499 618.865C115.499 618.367 115.096 617.964 114.599 617.964C114.102 617.964 113.699 618.367 113.699 618.865C113.699 619.362 114.102 619.766 114.599 619.766Z" fill="#22233B"/>
<path d="M93.4 619.766C93.8971 619.766 94.3 619.362 94.3 618.865C94.3 618.367 93.8971 617.964 93.4 617.964C92.9029 617.964 92.5 618.367 92.5 618.865C92.5 619.362 92.9029 619.766 93.4 619.766Z" fill="#22233B"/>
<path d="M72.0992 619.766C72.5962 619.766 72.9992 619.362 72.9992 618.865C72.9992 618.367 72.5962 617.964 72.0992 617.964C71.6022 617.964 71.1992 618.367 71.1992 618.865C71.1992 619.362 71.6022 619.766 72.0992 619.766Z" fill="#22233B"/>
<path d="M50.9 619.766C51.3971 619.766 51.8 619.362 51.8 618.865C51.8 618.367 51.3971 617.964 50.9 617.964C50.4029 617.964 50 618.367 50 618.865C50 619.362 50.4029 619.766 50.9 619.766Z" fill="#22233B"/>
<path d="M29.5992 619.766C30.0963 619.766 30.4992 619.362 30.4992 618.865C30.4992 618.367 30.0963 617.964 29.5992 617.964C29.1022 617.964 28.6992 618.367 28.6992 618.865C28.6992 619.362 29.1022 619.766 29.5992 619.766Z" fill="#22233B"/>
<path d="M8.29845 619.766C8.7955 619.766 9.19844 619.362 9.19844 618.865C9.19844 618.367 8.7955 617.964 8.29845 617.964C7.80139 617.964 7.39844 618.367 7.39844 618.865C7.39844 619.362 7.80139 619.766 8.29845 619.766Z" fill="#22233B"/>
<path d="M157.099 599.943C157.596 599.943 157.999 599.539 157.999 599.042C157.999 598.544 157.596 598.141 157.099 598.141C156.602 598.141 156.199 598.544 156.199 599.042C156.199 599.539 156.602 599.943 157.099 599.943Z" fill="#22233B"/>
<path d="M135.9 599.943C136.397 599.943 136.8 599.539 136.8 599.042C136.8 598.544 136.397 598.141 135.9 598.141C135.403 598.141 135 598.544 135 599.042C135 599.539 135.403 599.943 135.9 599.943Z" fill="#22233B"/>
<path d="M114.599 599.943C115.096 599.943 115.499 599.539 115.499 599.042C115.499 598.544 115.096 598.141 114.599 598.141C114.102 598.141 113.699 598.544 113.699 599.042C113.699 599.539 114.102 599.943 114.599 599.943Z" fill="#22233B"/>
<path d="M93.4 599.943C93.8971 599.943 94.3 599.539 94.3 599.042C94.3 598.544 93.8971 598.141 93.4 598.141C92.9029 598.141 92.5 598.544 92.5 599.042C92.5 599.539 92.9029 599.943 93.4 599.943Z" fill="#22233B"/>
<path d="M72.0992 599.943C72.5962 599.943 72.9992 599.539 72.9992 599.042C72.9992 598.544 72.5962 598.141 72.0992 598.141C71.6022 598.141 71.1992 598.544 71.1992 599.042C71.1992 599.539 71.6022 599.943 72.0992 599.943Z" fill="#22233B"/>
<path d="M50.9 599.943C51.3971 599.943 51.8 599.539 51.8 599.042C51.8 598.544 51.3971 598.141 50.9 598.141C50.4029 598.141 50 598.544 50 599.042C50 599.539 50.4029 599.943 50.9 599.943Z" fill="#22233B"/>
<path d="M29.5992 599.943C30.0963 599.943 30.4992 599.539 30.4992 599.042C30.4992 598.544 30.0963 598.141 29.5992 598.141C29.1022 598.141 28.6992 598.544 28.6992 599.042C28.6992 599.539 29.1022 599.943 29.5992 599.943Z" fill="#22233B"/>
<path d="M8.29845 599.943C8.7955 599.943 9.19844 599.539 9.19844 599.042C9.19844 598.544 8.7955 598.141 8.29845 598.141C7.80139 598.141 7.39844 598.544 7.39844 599.042C7.39844 599.539 7.80139 599.943 8.29845 599.943Z" fill="#22233B"/>
<path d="M157.099 580.021C157.596 580.021 157.999 579.617 157.999 579.12C157.999 578.622 157.596 578.219 157.099 578.219C156.602 578.219 156.199 578.622 156.199 579.12C156.199 579.617 156.602 580.021 157.099 580.021Z" fill="#22233B"/>
<path d="M135.9 580.021C136.397 580.021 136.8 579.617 136.8 579.12C136.8 578.622 136.397 578.219 135.9 578.219C135.403 578.219 135 578.622 135 579.12C135 579.617 135.403 580.021 135.9 580.021Z" fill="#22233B"/>
<path d="M114.599 580.021C115.096 580.021 115.499 579.617 115.499 579.12C115.499 578.622 115.096 578.219 114.599 578.219C114.102 578.219 113.699 578.622 113.699 579.12C113.699 579.617 114.102 580.021 114.599 580.021Z" fill="#22233B"/>
<path d="M93.4 580.021C93.8971 580.021 94.3 579.617 94.3 579.12C94.3 578.622 93.8971 578.219 93.4 578.219C92.9029 578.219 92.5 578.622 92.5 579.12C92.5 579.617 92.9029 580.021 93.4 580.021Z" fill="#22233B"/>
<path d="M72.0992 580.021C72.5962 580.021 72.9992 579.617 72.9992 579.12C72.9992 578.622 72.5962 578.219 72.0992 578.219C71.6022 578.219 71.1992 578.622 71.1992 579.12C71.1992 579.617 71.6022 580.021 72.0992 580.021Z" fill="#22233B"/>
<path d="M50.9 580.021C51.3971 580.021 51.8 579.617 51.8 579.12C51.8 578.622 51.3971 578.219 50.9 578.219C50.4029 578.219 50 578.622 50 579.12C50 579.617 50.4029 580.021 50.9 580.021Z" fill="#22233B"/>
<path d="M29.5992 580.021C30.0963 580.021 30.4992 579.617 30.4992 579.12C30.4992 578.622 30.0963 578.219 29.5992 578.219C29.1022 578.219 28.6992 578.622 28.6992 579.12C28.6992 579.617 29.1022 580.021 29.5992 580.021Z" fill="#22233B"/>
<path d="M8.29845 580.021C8.7955 580.021 9.19844 579.617 9.19844 579.12C9.19844 578.622 8.7955 578.219 8.29845 578.219C7.80139 578.219 7.39844 578.622 7.39844 579.12C7.39844 579.617 7.80139 580.021 8.29845 580.021Z" fill="#22233B"/>
<path d="M157.099 560.198C157.596 560.198 157.999 559.795 157.999 559.297C157.999 558.8 157.596 558.396 157.099 558.396C156.602 558.396 156.199 558.8 156.199 559.297C156.199 559.795 156.602 560.198 157.099 560.198Z" fill="#22233B"/>
<path d="M135.9 560.198C136.397 560.198 136.8 559.795 136.8 559.297C136.8 558.8 136.397 558.396 135.9 558.396C135.403 558.396 135 558.8 135 559.297C135 559.795 135.403 560.198 135.9 560.198Z" fill="#22233B"/>
<path d="M114.599 560.198C115.096 560.198 115.499 559.795 115.499 559.297C115.499 558.8 115.096 558.396 114.599 558.396C114.102 558.396 113.699 558.8 113.699 559.297C113.699 559.795 114.102 560.198 114.599 560.198Z" fill="#22233B"/>
<path d="M93.4 560.198C93.8971 560.198 94.3 559.795 94.3 559.297C94.3 558.8 93.8971 558.396 93.4 558.396C92.9029 558.396 92.5 558.8 92.5 559.297C92.5 559.795 92.9029 560.198 93.4 560.198Z" fill="#22233B"/>
<path d="M72.0992 560.198C72.5962 560.198 72.9992 559.795 72.9992 559.297C72.9992 558.8 72.5962 558.396 72.0992 558.396C71.6022 558.396 71.1992 558.8 71.1992 559.297C71.1992 559.795 71.6022 560.198 72.0992 560.198Z" fill="#22233B"/>
<path d="M50.9 560.198C51.3971 560.198 51.8 559.795 51.8 559.297C51.8 558.8 51.3971 558.396 50.9 558.396C50.4029 558.396 50 558.8 50 559.297C50 559.795 50.4029 560.198 50.9 560.198Z" fill="#22233B"/>
<path d="M29.5992 560.198C30.0963 560.198 30.4992 559.795 30.4992 559.297C30.4992 558.8 30.0963 558.396 29.5992 558.396C29.1022 558.396 28.6992 558.8 28.6992 559.297C28.6992 559.795 29.1022 560.198 29.5992 560.198Z" fill="#22233B"/>
<path d="M8.29845 560.198C8.7955 560.198 9.19844 559.795 9.19844 559.297C9.19844 558.8 8.7955 558.396 8.29845 558.396C7.80139 558.396 7.39844 558.8 7.39844 559.297C7.39844 559.795 7.80139 560.198 8.29845 560.198Z" fill="#22233B"/>
<path d="M157.099 540.276C157.596 540.276 157.999 539.872 157.999 539.375C157.999 538.877 157.596 538.474 157.099 538.474C156.602 538.474 156.199 538.877 156.199 539.375C156.199 539.872 156.602 540.276 157.099 540.276Z" fill="#22233B"/>
<path d="M135.9 540.276C136.397 540.276 136.8 539.872 136.8 539.375C136.8 538.877 136.397 538.474 135.9 538.474C135.403 538.474 135 538.877 135 539.375C135 539.872 135.403 540.276 135.9 540.276Z" fill="#22233B"/>
<path d="M114.599 540.276C115.096 540.276 115.499 539.872 115.499 539.375C115.499 538.877 115.096 538.474 114.599 538.474C114.102 538.474 113.699 538.877 113.699 539.375C113.699 539.872 114.102 540.276 114.599 540.276Z" fill="#22233B"/>
<path d="M93.4 540.276C93.8971 540.276 94.3 539.872 94.3 539.375C94.3 538.877 93.8971 538.474 93.4 538.474C92.9029 538.474 92.5 538.877 92.5 539.375C92.5 539.872 92.9029 540.276 93.4 540.276Z" fill="#22233B"/>
<path d="M72.0992 540.276C72.5962 540.276 72.9992 539.872 72.9992 539.375C72.9992 538.877 72.5962 538.474 72.0992 538.474C71.6022 538.474 71.1992 538.877 71.1992 539.375C71.1992 539.872 71.6022 540.276 72.0992 540.276Z" fill="#22233B"/>
<path d="M50.9 540.276C51.3971 540.276 51.8 539.872 51.8 539.375C51.8 538.877 51.3971 538.474 50.9 538.474C50.4029 538.474 50 538.877 50 539.375C50 539.872 50.4029 540.276 50.9 540.276Z" fill="#22233B"/>
<path d="M29.5992 540.276C30.0963 540.276 30.4992 539.872 30.4992 539.375C30.4992 538.877 30.0963 538.474 29.5992 538.474C29.1022 538.474 28.6992 538.877 28.6992 539.375C28.6992 539.872 29.1022 540.276 29.5992 540.276Z" fill="#22233B"/>
<path d="M8.29845 540.276C8.7955 540.276 9.19844 539.872 9.19844 539.375C9.19844 538.877 8.7955 538.474 8.29845 538.474C7.80139 538.474 7.39844 538.877 7.39844 539.375C7.39844 539.872 7.80139 540.276 8.29845 540.276Z" fill="#22233B"/>
<path d="M157.099 520.453C157.596 520.453 157.999 520.05 157.999 519.552C157.999 519.055 157.596 518.651 157.099 518.651C156.602 518.651 156.199 519.055 156.199 519.552C156.199 520.05 156.602 520.453 157.099 520.453Z" fill="#22233B"/>
<path d="M135.9 520.453C136.397 520.453 136.8 520.05 136.8 519.552C136.8 519.055 136.397 518.651 135.9 518.651C135.403 518.651 135 519.055 135 519.552C135 520.05 135.403 520.453 135.9 520.453Z" fill="#22233B"/>
<path d="M114.599 520.453C115.096 520.453 115.499 520.05 115.499 519.552C115.499 519.055 115.096 518.651 114.599 518.651C114.102 518.651 113.699 519.055 113.699 519.552C113.699 520.05 114.102 520.453 114.599 520.453Z" fill="#22233B"/>
<path d="M93.4 520.453C93.8971 520.453 94.3 520.05 94.3 519.552C94.3 519.055 93.8971 518.651 93.4 518.651C92.9029 518.651 92.5 519.055 92.5 519.552C92.5 520.05 92.9029 520.453 93.4 520.453Z" fill="#22233B"/>
<path d="M72.0992 520.453C72.5962 520.453 72.9992 520.05 72.9992 519.552C72.9992 519.055 72.5962 518.651 72.0992 518.651C71.6022 518.651 71.1992 519.055 71.1992 519.552C71.1992 520.05 71.6022 520.453 72.0992 520.453Z" fill="#22233B"/>
<path d="M50.9 520.453C51.3971 520.453 51.8 520.05 51.8 519.552C51.8 519.055 51.3971 518.651 50.9 518.651C50.4029 518.651 50 519.055 50 519.552C50 520.05 50.4029 520.453 50.9 520.453Z" fill="#22233B"/>
<path d="M29.5992 520.453C30.0963 520.453 30.4992 520.05 30.4992 519.552C30.4992 519.055 30.0963 518.651 29.5992 518.651C29.1022 518.651 28.6992 519.055 28.6992 519.552C28.6992 520.05 29.1022 520.453 29.5992 520.453Z" fill="#22233B"/>
<path d="M8.29845 520.453C8.7955 520.453 9.19844 520.05 9.19844 519.552C9.19844 519.055 8.7955 518.651 8.29845 518.651C7.80139 518.651 7.39844 519.055 7.39844 519.552C7.39844 520.05 7.80139 520.453 8.29845 520.453Z" fill="#22233B"/>
<path d="M157.099 500.531C157.596 500.531 157.999 500.127 157.999 499.63C157.999 499.132 157.596 498.729 157.099 498.729C156.602 498.729 156.199 499.132 156.199 499.63C156.199 500.127 156.602 500.531 157.099 500.531Z" fill="#22233B"/>
<path d="M135.9 500.531C136.397 500.531 136.8 500.127 136.8 499.63C136.8 499.132 136.397 498.729 135.9 498.729C135.403 498.729 135 499.132 135 499.63C135 500.127 135.403 500.531 135.9 500.531Z" fill="#22233B"/>
<path d="M114.599 500.531C115.096 500.531 115.499 500.127 115.499 499.63C115.499 499.132 115.096 498.729 114.599 498.729C114.102 498.729 113.699 499.132 113.699 499.63C113.699 500.127 114.102 500.531 114.599 500.531Z" fill="#22233B"/>
<path d="M93.4 500.531C93.8971 500.531 94.3 500.127 94.3 499.63C94.3 499.132 93.8971 498.729 93.4 498.729C92.9029 498.729 92.5 499.132 92.5 499.63C92.5 500.127 92.9029 500.531 93.4 500.531Z" fill="#22233B"/>
<path d="M72.0992 500.531C72.5962 500.531 72.9992 500.127 72.9992 499.63C72.9992 499.132 72.5962 498.729 72.0992 498.729C71.6022 498.729 71.1992 499.132 71.1992 499.63C71.1992 500.127 71.6022 500.531 72.0992 500.531Z" fill="#22233B"/>
<path d="M50.9 500.531C51.3971 500.531 51.8 500.127 51.8 499.63C51.8 499.132 51.3971 498.729 50.9 498.729C50.4029 498.729 50 499.132 50 499.63C50 500.127 50.4029 500.531 50.9 500.531Z" fill="#22233B"/>
<path d="M29.5992 500.531C30.0963 500.531 30.4992 500.127 30.4992 499.63C30.4992 499.132 30.0963 498.729 29.5992 498.729C29.1022 498.729 28.6992 499.132 28.6992 499.63C28.6992 500.127 29.1022 500.531 29.5992 500.531Z" fill="#22233B"/>
<path d="M8.29845 500.531C8.7955 500.531 9.19844 500.127 9.19844 499.63C9.19844 499.132 8.7955 498.729 8.29845 498.729C7.80139 498.729 7.39844 499.132 7.39844 499.63C7.39844 500.127 7.80139 500.531 8.29845 500.531Z" fill="#22233B"/>
<path d="M157.099 480.708C157.596 480.708 157.999 480.305 157.999 479.807C157.999 479.31 157.596 478.906 157.099 478.906C156.602 478.906 156.199 479.31 156.199 479.807C156.199 480.305 156.602 480.708 157.099 480.708Z" fill="#22233B"/>
<path d="M135.9 480.708C136.397 480.708 136.8 480.305 136.8 479.807C136.8 479.31 136.397 478.906 135.9 478.906C135.403 478.906 135 479.31 135 479.807C135 480.305 135.403 480.708 135.9 480.708Z" fill="#22233B"/>
<path d="M114.599 480.708C115.096 480.708 115.499 480.305 115.499 479.807C115.499 479.31 115.096 478.906 114.599 478.906C114.102 478.906 113.699 479.31 113.699 479.807C113.699 480.305 114.102 480.708 114.599 480.708Z" fill="#22233B"/>
<path d="M93.4 480.708C93.8971 480.708 94.3 480.305 94.3 479.807C94.3 479.31 93.8971 478.906 93.4 478.906C92.9029 478.906 92.5 479.31 92.5 479.807C92.5 480.305 92.9029 480.708 93.4 480.708Z" fill="#22233B"/>
<path d="M72.0992 480.708C72.5962 480.708 72.9992 480.305 72.9992 479.807C72.9992 479.31 72.5962 478.906 72.0992 478.906C71.6022 478.906 71.1992 479.31 71.1992 479.807C71.1992 480.305 71.6022 480.708 72.0992 480.708Z" fill="#22233B"/>
<path d="M50.9 480.708C51.3971 480.708 51.8 480.305 51.8 479.807C51.8 479.31 51.3971 478.906 50.9 478.906C50.4029 478.906 50 479.31 50 479.807C50 480.305 50.4029 480.708 50.9 480.708Z" fill="#22233B"/>
<path d="M29.5992 480.708C30.0963 480.708 30.4992 480.305 30.4992 479.807C30.4992 479.31 30.0963 478.906 29.5992 478.906C29.1022 478.906 28.6992 479.31 28.6992 479.807C28.6992 480.305 29.1022 480.708 29.5992 480.708Z" fill="#22233B"/>
<path d="M8.29845 480.708C8.7955 480.708 9.19844 480.305 9.19844 479.807C9.19844 479.31 8.7955 478.906 8.29845 478.906C7.80139 478.906 7.39844 479.31 7.39844 479.807C7.39844 480.305 7.80139 480.708 8.29845 480.708Z" fill="#22233B"/>
<path d="M157.099 460.786C157.596 460.786 157.999 460.383 157.999 459.885C157.999 459.388 157.596 458.984 157.099 458.984C156.602 458.984 156.199 459.388 156.199 459.885C156.199 460.383 156.602 460.786 157.099 460.786Z" fill="#22233B"/>
<path d="M135.9 460.786C136.397 460.786 136.8 460.383 136.8 459.885C136.8 459.388 136.397 458.984 135.9 458.984C135.403 458.984 135 459.388 135 459.885C135 460.383 135.403 460.786 135.9 460.786Z" fill="#22233B"/>
<path d="M114.599 460.786C115.096 460.786 115.499 460.383 115.499 459.885C115.499 459.388 115.096 458.984 114.599 458.984C114.102 458.984 113.699 459.388 113.699 459.885C113.699 460.383 114.102 460.786 114.599 460.786Z" fill="#22233B"/>
<path d="M93.4 460.786C93.8971 460.786 94.3 460.383 94.3 459.885C94.3 459.388 93.8971 458.984 93.4 458.984C92.9029 458.984 92.5 459.388 92.5 459.885C92.5 460.383 92.9029 460.786 93.4 460.786Z" fill="#22233B"/>
<path d="M72.0992 460.786C72.5962 460.786 72.9992 460.383 72.9992 459.885C72.9992 459.388 72.5962 458.984 72.0992 458.984C71.6022 458.984 71.1992 459.388 71.1992 459.885C71.1992 460.383 71.6022 460.786 72.0992 460.786Z" fill="#22233B"/>
<path d="M50.9 460.786C51.3971 460.786 51.8 460.383 51.8 459.885C51.8 459.388 51.3971 458.984 50.9 458.984C50.4029 458.984 50 459.388 50 459.885C50 460.383 50.4029 460.786 50.9 460.786Z" fill="#22233B"/>
<path d="M29.5992 460.786C30.0963 460.786 30.4992 460.383 30.4992 459.885C30.4992 459.388 30.0963 458.984 29.5992 458.984C29.1022 458.984 28.6992 459.388 28.6992 459.885C28.6992 460.383 29.1022 460.786 29.5992 460.786Z" fill="#22233B"/>
<path d="M8.29845 460.786C8.7955 460.786 9.19844 460.383 9.19844 459.885C9.19844 459.388 8.7955 458.984 8.29845 458.984C7.80139 458.984 7.39844 459.388 7.39844 459.885C7.39844 460.383 7.80139 460.786 8.29845 460.786Z" fill="#22233B"/>
<path d="M157.099 439.962C157.596 439.962 157.999 439.559 157.999 439.061C157.999 438.564 157.596 438.16 157.099 438.16C156.602 438.16 156.199 438.564 156.199 439.061C156.199 439.559 156.602 439.962 157.099 439.962Z" fill="#22233B"/>
<path d="M135.9 439.962C136.397 439.962 136.8 439.559 136.8 439.061C136.8 438.564 136.397 438.16 135.9 438.16C135.403 438.16 135 438.564 135 439.061C135 439.559 135.403 439.962 135.9 439.962Z" fill="#22233B"/>
<path d="M114.599 439.962C115.096 439.962 115.499 439.559 115.499 439.061C115.499 438.564 115.096 438.16 114.599 438.16C114.102 438.16 113.699 438.564 113.699 439.061C113.699 439.559 114.102 439.962 114.599 439.962Z" fill="#22233B"/>
<path d="M93.4 439.962C93.8971 439.962 94.3 439.559 94.3 439.061C94.3 438.564 93.8971 438.16 93.4 438.16C92.9029 438.16 92.5 438.564 92.5 439.061C92.5 439.559 92.9029 439.962 93.4 439.962Z" fill="#22233B"/>
<path d="M72.0992 439.962C72.5962 439.962 72.9992 439.559 72.9992 439.061C72.9992 438.564 72.5962 438.16 72.0992 438.16C71.6022 438.16 71.1992 438.564 71.1992 439.061C71.1992 439.559 71.6022 439.962 72.0992 439.962Z" fill="#22233B"/>
<path d="M50.9 439.962C51.3971 439.962 51.8 439.559 51.8 439.061C51.8 438.564 51.3971 438.16 50.9 438.16C50.4029 438.16 50 438.564 50 439.061C50 439.559 50.4029 439.962 50.9 439.962Z" fill="#22233B"/>
<path d="M29.5992 439.962C30.0963 439.962 30.4992 439.559 30.4992 439.061C30.4992 438.564 30.0963 438.16 29.5992 438.16C29.1022 438.16 28.6992 438.564 28.6992 439.061C28.6992 439.559 29.1022 439.962 29.5992 439.962Z" fill="#22233B"/>
<path d="M8.29845 439.962C8.7955 439.962 9.19844 439.559 9.19844 439.061C9.19844 438.564 8.7955 438.16 8.29845 438.16C7.80139 438.16 7.39844 438.564 7.39844 439.061C7.39844 439.559 7.80139 439.962 8.29845 439.962Z" fill="#22233B"/>
<path d="M157.099 420.04C157.596 420.04 157.999 419.637 157.999 419.139C157.999 418.642 157.596 418.238 157.099 418.238C156.602 418.238 156.199 418.642 156.199 419.139C156.199 419.637 156.602 420.04 157.099 420.04Z" fill="#22233B"/>
<path d="M135.9 420.04C136.397 420.04 136.8 419.637 136.8 419.139C136.8 418.642 136.397 418.238 135.9 418.238C135.403 418.238 135 418.642 135 419.139C135 419.637 135.403 420.04 135.9 420.04Z" fill="#22233B"/>
<path d="M114.599 420.04C115.096 420.04 115.499 419.637 115.499 419.139C115.499 418.642 115.096 418.238 114.599 418.238C114.102 418.238 113.699 418.642 113.699 419.139C113.699 419.637 114.102 420.04 114.599 420.04Z" fill="#22233B"/>
<path d="M93.4 420.04C93.8971 420.04 94.3 419.637 94.3 419.139C94.3 418.642 93.8971 418.238 93.4 418.238C92.9029 418.238 92.5 418.642 92.5 419.139C92.5 419.637 92.9029 420.04 93.4 420.04Z" fill="#22233B"/>
<path d="M72.0992 420.04C72.5962 420.04 72.9992 419.637 72.9992 419.139C72.9992 418.642 72.5962 418.238 72.0992 418.238C71.6022 418.238 71.1992 418.642 71.1992 419.139C71.1992 419.637 71.6022 420.04 72.0992 420.04Z" fill="#22233B"/>
<path d="M50.9 420.04C51.3971 420.04 51.8 419.637 51.8 419.139C51.8 418.642 51.3971 418.238 50.9 418.238C50.4029 418.238 50 418.642 50 419.139C50 419.637 50.4029 420.04 50.9 420.04Z" fill="#22233B"/>
<path d="M29.5992 420.04C30.0963 420.04 30.4992 419.637 30.4992 419.139C30.4992 418.642 30.0963 418.238 29.5992 418.238C29.1022 418.238 28.6992 418.642 28.6992 419.139C28.6992 419.637 29.1022 420.04 29.5992 420.04Z" fill="#22233B"/>
<path d="M8.29845 420.04C8.7955 420.04 9.19844 419.637 9.19844 419.139C9.19844 418.642 8.7955 418.238 8.29845 418.238C7.80139 418.238 7.39844 418.642 7.39844 419.139C7.39844 419.637 7.80139 420.04 8.29845 420.04Z" fill="#22233B"/>
<path d="M157.099 399.216C157.596 399.216 157.999 398.813 157.999 398.315C157.999 397.817 157.596 397.414 157.099 397.414C156.602 397.414 156.199 397.817 156.199 398.315C156.199 398.813 156.602 399.216 157.099 399.216Z" fill="#22233B"/>
<path d="M135.9 399.216C136.397 399.216 136.8 398.813 136.8 398.315C136.8 397.817 136.397 397.414 135.9 397.414C135.403 397.414 135 397.817 135 398.315C135 398.813 135.403 399.216 135.9 399.216Z" fill="#22233B"/>
<path d="M114.599 399.216C115.096 399.216 115.499 398.813 115.499 398.315C115.499 397.817 115.096 397.414 114.599 397.414C114.102 397.414 113.699 397.817 113.699 398.315C113.699 398.813 114.102 399.216 114.599 399.216Z" fill="#22233B"/>
<path d="M93.4 399.216C93.8971 399.216 94.3 398.813 94.3 398.315C94.3 397.817 93.8971 397.414 93.4 397.414C92.9029 397.414 92.5 397.817 92.5 398.315C92.5 398.813 92.9029 399.216 93.4 399.216Z" fill="#22233B"/>
<path d="M72.0992 399.216C72.5962 399.216 72.9992 398.813 72.9992 398.315C72.9992 397.817 72.5962 397.414 72.0992 397.414C71.6022 397.414 71.1992 397.817 71.1992 398.315C71.1992 398.813 71.6022 399.216 72.0992 399.216Z" fill="#22233B"/>
<path d="M50.9 399.216C51.3971 399.216 51.8 398.813 51.8 398.315C51.8 397.817 51.3971 397.414 50.9 397.414C50.4029 397.414 50 397.817 50 398.315C50 398.813 50.4029 399.216 50.9 399.216Z" fill="#22233B"/>
<path d="M29.5992 399.216C30.0963 399.216 30.4992 398.813 30.4992 398.315C30.4992 397.817 30.0963 397.414 29.5992 397.414C29.1022 397.414 28.6992 397.817 28.6992 398.315C28.6992 398.813 29.1022 399.216 29.5992 399.216Z" fill="#22233B"/>
<path d="M8.29845 399.216C8.7955 399.216 9.19844 398.813 9.19844 398.315C9.19844 397.817 8.7955 397.414 8.29845 397.414C7.80139 397.414 7.39844 397.817 7.39844 398.315C7.39844 398.813 7.80139 399.216 8.29845 399.216Z" fill="#22233B"/>
<path d="M157.099 379.294C157.596 379.294 157.999 378.891 157.999 378.393C157.999 377.896 157.596 377.492 157.099 377.492C156.602 377.492 156.199 377.896 156.199 378.393C156.199 378.891 156.602 379.294 157.099 379.294Z" fill="#22233B"/>
<path d="M135.9 379.294C136.397 379.294 136.8 378.891 136.8 378.393C136.8 377.896 136.397 377.492 135.9 377.492C135.403 377.492 135 377.896 135 378.393C135 378.891 135.403 379.294 135.9 379.294Z" fill="#22233B"/>
<path d="M114.599 379.294C115.096 379.294 115.499 378.891 115.499 378.393C115.499 377.896 115.096 377.492 114.599 377.492C114.102 377.492 113.699 377.896 113.699 378.393C113.699 378.891 114.102 379.294 114.599 379.294Z" fill="#22233B"/>
<path d="M93.4 379.294C93.8971 379.294 94.3 378.891 94.3 378.393C94.3 377.896 93.8971 377.492 93.4 377.492C92.9029 377.492 92.5 377.896 92.5 378.393C92.5 378.891 92.9029 379.294 93.4 379.294Z" fill="#22233B"/>
<path d="M72.0992 379.294C72.5962 379.294 72.9992 378.891 72.9992 378.393C72.9992 377.896 72.5962 377.492 72.0992 377.492C71.6022 377.492 71.1992 377.896 71.1992 378.393C71.1992 378.891 71.6022 379.294 72.0992 379.294Z" fill="#22233B"/>
<path d="M50.9 379.294C51.3971 379.294 51.8 378.891 51.8 378.393C51.8 377.896 51.3971 377.492 50.9 377.492C50.4029 377.492 50 377.896 50 378.393C50 378.891 50.4029 379.294 50.9 379.294Z" fill="#22233B"/>
<path d="M29.5992 379.294C30.0963 379.294 30.4992 378.891 30.4992 378.393C30.4992 377.896 30.0963 377.492 29.5992 377.492C29.1022 377.492 28.6992 377.896 28.6992 378.393C28.6992 378.891 29.1022 379.294 29.5992 379.294Z" fill="#22233B"/>
<path d="M8.29845 379.294C8.7955 379.294 9.19844 378.891 9.19844 378.393C9.19844 377.896 8.7955 377.492 8.29845 377.492C7.80139 377.492 7.39844 377.896 7.39844 378.393C7.39844 378.891 7.80139 379.294 8.29845 379.294Z" fill="#22233B"/>
<path d="M157.099 358.471C157.596 358.471 157.999 358.068 157.999 357.57C157.999 357.072 157.596 356.669 157.099 356.669C156.602 356.669 156.199 357.072 156.199 357.57C156.199 358.068 156.602 358.471 157.099 358.471Z" fill="#22233B"/>
<path d="M135.9 358.471C136.397 358.471 136.8 358.068 136.8 357.57C136.8 357.072 136.397 356.669 135.9 356.669C135.403 356.669 135 357.072 135 357.57C135 358.068 135.403 358.471 135.9 358.471Z" fill="#22233B"/>
<path d="M114.599 358.471C115.096 358.471 115.499 358.068 115.499 357.57C115.499 357.072 115.096 356.669 114.599 356.669C114.102 356.669 113.699 357.072 113.699 357.57C113.699 358.068 114.102 358.471 114.599 358.471Z" fill="#22233B"/>
<path d="M93.4 358.471C93.8971 358.471 94.3 358.068 94.3 357.57C94.3 357.072 93.8971 356.669 93.4 356.669C92.9029 356.669 92.5 357.072 92.5 357.57C92.5 358.068 92.9029 358.471 93.4 358.471Z" fill="#22233B"/>
<path d="M72.0992 358.471C72.5962 358.471 72.9992 358.068 72.9992 357.57C72.9992 357.072 72.5962 356.669 72.0992 356.669C71.6022 356.669 71.1992 357.072 71.1992 357.57C71.1992 358.068 71.6022 358.471 72.0992 358.471Z" fill="#22233B"/>
<path d="M50.9 358.471C51.3971 358.471 51.8 358.068 51.8 357.57C51.8 357.072 51.3971 356.669 50.9 356.669C50.4029 356.669 50 357.072 50 357.57C50 358.068 50.4029 358.471 50.9 358.471Z" fill="#22233B"/>
<path d="M29.5992 358.471C30.0963 358.471 30.4992 358.068 30.4992 357.57C30.4992 357.072 30.0963 356.669 29.5992 356.669C29.1022 356.669 28.6992 357.072 28.6992 357.57C28.6992 358.068 29.1022 358.471 29.5992 358.471Z" fill="#22233B"/>
<path d="M8.29845 358.471C8.7955 358.471 9.19844 358.068 9.19844 357.57C9.19844 357.072 8.7955 356.669 8.29845 356.669C7.80139 356.669 7.39844 357.072 7.39844 357.57C7.39844 358.068 7.80139 358.471 8.29845 358.471Z" fill="#22233B"/>
<path d="M157.099 338.548C157.596 338.548 157.999 338.145 157.999 337.647C157.999 337.149 157.596 336.746 157.099 336.746C156.602 336.746 156.199 337.149 156.199 337.647C156.199 338.145 156.602 338.548 157.099 338.548Z" fill="#22233B"/>
<path d="M135.9 338.548C136.397 338.548 136.8 338.145 136.8 337.647C136.8 337.149 136.397 336.746 135.9 336.746C135.403 336.746 135 337.149 135 337.647C135 338.145 135.403 338.548 135.9 338.548Z" fill="#22233B"/>
<path d="M114.599 338.548C115.096 338.548 115.499 338.145 115.499 337.647C115.499 337.149 115.096 336.746 114.599 336.746C114.102 336.746 113.699 337.149 113.699 337.647C113.699 338.145 114.102 338.548 114.599 338.548Z" fill="#22233B"/>
<path d="M93.4 338.548C93.8971 338.548 94.3 338.145 94.3 337.647C94.3 337.149 93.8971 336.746 93.4 336.746C92.9029 336.746 92.5 337.149 92.5 337.647C92.5 338.145 92.9029 338.548 93.4 338.548Z" fill="#22233B"/>
<path d="M72.0992 338.548C72.5962 338.548 72.9992 338.145 72.9992 337.647C72.9992 337.149 72.5962 336.746 72.0992 336.746C71.6022 336.746 71.1992 337.149 71.1992 337.647C71.1992 338.145 71.6022 338.548 72.0992 338.548Z" fill="#22233B"/>
<path d="M50.9 338.548C51.3971 338.548 51.8 338.145 51.8 337.647C51.8 337.149 51.3971 336.746 50.9 336.746C50.4029 336.746 50 337.149 50 337.647C50 338.145 50.4029 338.548 50.9 338.548Z" fill="#22233B"/>
<path d="M29.5992 338.548C30.0963 338.548 30.4992 338.145 30.4992 337.647C30.4992 337.149 30.0963 336.746 29.5992 336.746C29.1022 336.746 28.6992 337.149 28.6992 337.647C28.6992 338.145 29.1022 338.548 29.5992 338.548Z" fill="#22233B"/>
<path d="M8.29845 338.548C8.7955 338.548 9.19844 338.145 9.19844 337.647C9.19844 337.149 8.7955 336.746 8.29845 336.746C7.80139 336.746 7.39844 337.149 7.39844 337.647C7.39844 338.145 7.80139 338.548 8.29845 338.548Z" fill="#22233B"/>
<path d="M157.099 317.725C157.596 317.725 157.999 317.321 157.999 316.824C157.999 316.326 157.596 315.923 157.099 315.923C156.602 315.923 156.199 316.326 156.199 316.824C156.199 317.321 156.602 317.725 157.099 317.725Z" fill="#22233B"/>
<path d="M135.9 317.725C136.397 317.725 136.8 317.321 136.8 316.824C136.8 316.326 136.397 315.923 135.9 315.923C135.403 315.923 135 316.326 135 316.824C135 317.321 135.403 317.725 135.9 317.725Z" fill="#22233B"/>
<path d="M114.599 317.725C115.096 317.725 115.499 317.321 115.499 316.824C115.499 316.326 115.096 315.923 114.599 315.923C114.102 315.923 113.699 316.326 113.699 316.824C113.699 317.321 114.102 317.725 114.599 317.725Z" fill="#22233B"/>
<path d="M93.4 317.725C93.8971 317.725 94.3 317.321 94.3 316.824C94.3 316.326 93.8971 315.923 93.4 315.923C92.9029 315.923 92.5 316.326 92.5 316.824C92.5 317.321 92.9029 317.725 93.4 317.725Z" fill="#22233B"/>
<path d="M72.0992 317.725C72.5962 317.725 72.9992 317.321 72.9992 316.824C72.9992 316.326 72.5962 315.923 72.0992 315.923C71.6022 315.923 71.1992 316.326 71.1992 316.824C71.1992 317.321 71.6022 317.725 72.0992 317.725Z" fill="#22233B"/>
<path d="M50.9 317.725C51.3971 317.725 51.8 317.321 51.8 316.824C51.8 316.326 51.3971 315.923 50.9 315.923C50.4029 315.923 50 316.326 50 316.824C50 317.321 50.4029 317.725 50.9 317.725Z" fill="#22233B"/>
<path d="M29.5992 317.725C30.0963 317.725 30.4992 317.321 30.4992 316.824C30.4992 316.326 30.0963 315.923 29.5992 315.923C29.1022 315.923 28.6992 316.326 28.6992 316.824C28.6992 317.321 29.1022 317.725 29.5992 317.725Z" fill="#22233B"/>
<path d="M8.29845 317.725C8.7955 317.725 9.19844 317.321 9.19844 316.824C9.19844 316.326 8.7955 315.923 8.29845 315.923C7.80139 315.923 7.39844 316.326 7.39844 316.824C7.39844 317.321 7.80139 317.725 8.29845 317.725Z" fill="#22233B"/>
<path d="M157.099 297.802C157.596 297.802 157.999 297.399 157.999 296.901C157.999 296.403 157.596 296 157.099 296C156.602 296 156.199 296.403 156.199 296.901C156.199 297.399 156.602 297.802 157.099 297.802Z" fill="#22233B"/>
<path d="M135.9 297.802C136.397 297.802 136.8 297.399 136.8 296.901C136.8 296.403 136.397 296 135.9 296C135.403 296 135 296.403 135 296.901C135 297.399 135.403 297.802 135.9 297.802Z" fill="#22233B"/>
<path d="M114.599 297.802C115.096 297.802 115.499 297.399 115.499 296.901C115.499 296.403 115.096 296 114.599 296C114.102 296 113.699 296.403 113.699 296.901C113.699 297.399 114.102 297.802 114.599 297.802Z" fill="#22233B"/>
<path d="M93.4 297.802C93.8971 297.802 94.3 297.399 94.3 296.901C94.3 296.403 93.8971 296 93.4 296C92.9029 296 92.5 296.403 92.5 296.901C92.5 297.399 92.9029 297.802 93.4 297.802Z" fill="#22233B"/>
<path d="M72.0992 297.802C72.5962 297.802 72.9992 297.399 72.9992 296.901C72.9992 296.403 72.5962 296 72.0992 296C71.6022 296 71.1992 296.403 71.1992 296.901C71.1992 297.399 71.6022 297.802 72.0992 297.802Z" fill="#22233B"/>
<path d="M50.9 297.802C51.3971 297.802 51.8 297.399 51.8 296.901C51.8 296.403 51.3971 296 50.9 296C50.4029 296 50 296.403 50 296.901C50 297.399 50.4029 297.802 50.9 297.802Z" fill="#22233B"/>
<path d="M29.5992 297.802C30.0963 297.802 30.4992 297.399 30.4992 296.901C30.4992 296.403 30.0963 296 29.5992 296C29.1022 296 28.6992 296.403 28.6992 296.901C28.6992 297.399 29.1022 297.802 29.5992 297.802Z" fill="#22233B"/>
<path d="M8.29845 297.802C8.7955 297.802 9.19844 297.399 9.19844 296.901C9.19844 296.403 8.7955 296 8.29845 296C7.80139 296 7.39844 296.403 7.39844 296.901C7.39844 297.399 7.80139 297.802 8.29845 297.802Z" fill="#22233B"/>
</svg>
